<svg xmlns="http://www.w3.org/2000/svg" xmlns:xlink="http://www.w3.org/1999/xlink" width="1500" height="1500" viewBox="0 0 1500 1500">
<defs>
<clipPath id="clip-path">
<rect id="Rectangle_2203" data-name="Rectangle 2203" width="1155" height="943" transform="translate(173 278)" fill="#fff"></rect>
</clipPath>
<clipPath id="clip-undraw_exams_g-4-ow">
<rect width="1500" height="1500" id="id_101"></rect>
</clipPath>
</defs>
<g id="undraw_exams_g-4-ow" clip-path="url(#clip-undraw_exams_g-4-ow)">
<rect width="1500" height="1500" fill="#fff" id="id_102"></rect>
<g id="undraw_exams_g-4-ow-2" data-name="undraw_exams_g-4-ow">
<g id="undraw_exams_g-4-ow-3" data-name="undraw_exams_g-4-ow">
<rect id="Rectangle_2202" data-name="Rectangle 2202" width="1500" height="1500" fill="#fff" opacity="0"></rect>
<g id="Group_447" data-name="Group 447" clip-path="url(#clip-path)">
<path id="Path_16259" data-name="Path 16259" d="M1299.92,824.649v2.137q-.2,18.531-2.2,36.967v.224c-.11,1.021-.23,2.031-.34,3.053-.2,1.726-.41,3.44-.65,5.167a371.123,371.123,0,0,1-13.55,61.991h0a334.007,334.007,0,0,1-35.37,77.832q-6.96,11.16-14.82,21.6-4.185,5.52-8.6,10.84-3.105,3.72-6.32,7.32l-1.34,1.48a348.31,348.31,0,0,1-36.43,34.6c-21.15,17.52-43.92,32.76-67.06,46.9-1.32.81-2.65,1.61-3.97,2.35a2.908,2.908,0,0,1-.3.17c-31.44,19-64.05,36.15-97.65,49.88-36.78,15.06-74.759,26.02-113.726,30.81-54.313,6.67-109.285,1.24-163.269-8.08a1061.157,1061.157,0,0,1-132.787-31.71l-7.168-2.24q-5.571-1.77-11.128-3.62-33.573-11.085-66.394-24.66a872.4,872.4,0,0,1-156.677-84.06q-9.4-6.33-18.531-12.92-12.762-9.18-25.218-18.91l-5.123-3.97a526.157,526.157,0,0,1-60.9-55.882c-25.288-27.5-46.9-58.527-61.105-93.944q-3.361-8.349-6.158-17.015l-.176-.576c-.94-2.936-1.81-5.871-2.609-8.924q-1.763-6.553-3.09-13.27c-.188-.857-.353-1.715-.505-2.584a221.978,221.978,0,0,1-3.7-45.715,211.284,211.284,0,0,1,4.7-39.926h0a180.071,180.071,0,0,1,13.314-39.422h0a142.12,142.12,0,0,1,20.365-31.389h0a120.16,120.16,0,0,1,19.189-17.92c12.75-9.488,26.887-16.1,41.54-21.325,6.887-2.466,13.867-4.627,20.882-6.635,4.971-1.433,9.965-2.795,14.936-4.133l14.665-3.958c9.4-2.56,18.8-5.19,28.062-8.032,25.241-7.7,49.977-17.027,72.856-30.931,3.619-2.2,7.309-4.6,11-7.187q7.052-4.9,13.913-10.639c4.63-3.875,9.166-8.021,13.491-12.412.669-.682,1.327-1.363,1.986-2.056,3.525-3.71,6.944-7.6,10.117-11.637,1.551-1.973,3.055-3.981,4.489-6.024,1.986-2.83,3.866-5.707,5.605-8.666,8.72-14.8,14.1-31.119,13.467-48.323a74.376,74.376,0,0,0-.764-8.467c-1.527-10.369-3-20.491-4.077-30.391-4.536-40.947-2.621-78.079,28.132-112.967,38.238-43.367,98.25-52.21,152.881-48.746,157.946,9.982,301.732,100.1,428.093,207.382q16.395,13.9,32.38,28.183,4.035,3.594,8.08,7.234c19.97,17.979,39.65,36.626,57.96,56.6,1.49,1.621,2.97,3.242,4.42,4.874.9,1.01,1.8,2.008,2.68,3.029q8.565,9.688,16.63,19.846a375.7,375.7,0,0,1,37.98,57.541,326.656,326.656,0,0,1,33.35,101.777h0a363.415,363.415,0,0,1,4.03,38.951c.2,3.84.33,7.692.4,11.532v3.687C1299.93,821.126,1299.93,822.864,1299.92,824.649Z" fill="#00424f" opacity="0.1"></path>
<path id="Path_16260" data-name="Path 16260" d="M635.969,804.957l-18.8,334.433,18.8.24,15.276-339.37Z" fill="#3f3d56"></path>
<path id="Path_16261" data-name="Path 16261" d="M566.637,974.4H333.966v50.494H566.637Z" fill="#003540"></path>
<path id="Path_16262" data-name="Path 16262" d="M581.914,1019.01v31.7H341.569q-12.76-9.18-25.217-18.9v-12.8Z" fill="#3f3d56"></path>
<path id="Path_16263" data-name="Path 16263" d="M629.905,946.847c-.658,3.041-1.516,6.047-2.421,9.042-2.667,8.654-5.876,17.192-6.5,26.187-.835,11.884,2.35,25.7-5.876,34.334-2.115,2.23-4.877,3.9-6.768,6.28a11.493,11.493,0,0,0-.8,1.18c-1.692,2.79-1.891,6.2-1.915,9.39a164.283,164.283,0,0,0,1.328,20.38c2.785,23.25,8.284,46.55,1.058,68.49a105.091,105.091,0,0,1-4.572,11.17c-3.525,7.75-7.368,15.4-8.519,23.79-.846,6.23-.588,12.64-.635,18.97q-5.57-1.77-11.128-3.62-33.573-11.1-66.393-24.66c.058-.32.117-.64.164-.96,1.68-10.45-.623-21.14-3.419-31.33-5.876-21.6-14.2-42.98-19.119-64.73a163.543,163.543,0,0,1-3.89-25.83c-.141-1.95-.223-3.91-.235-5.88-.059-2.56,0-5.12.106-7.7.246-5.15.47-11.27-3.655-14.408-2.268-1.7-5.264-2-7.908-3.029-5.1-1.985-8.59-6.588-12.633-10.275a16.561,16.561,0,0,0-14.794-4.345c-26.417,6.047-45.829,28.437-70.413,39.757-.952.45-1.9.87-2.867,1.27a41.825,41.825,0,0,0-9.013,4.61,10.232,10.232,0,0,0-4.042,5.69c-.623,2.49-.083,5.1.223,7.66a39.067,39.067,0,0,1-.529,12.48,38.492,38.492,0,0,1-1.257,4.7c-.94,2.78-2.2,5.51-3.4,8.22q-9.4-6.315-18.532-12.92-12.761-9.18-25.218-18.91l-5.041-4.05A526.15,526.15,0,0,1,250.4,971.918c2.5-7.046,6.123-13.6,7.862-20.82.987-4.146,1.351-8.455,2.714-12.483a44.867,44.867,0,0,1,6.487-11.626,157.4,157.4,0,0,1,36.123-36.121c14.559-10.428,31.375-18.789,44.477-30.626a70.132,70.132,0,0,0,13.6-16.1,9.917,9.917,0,0,0,.623-1.174,24.382,24.382,0,0,0,2.1-6.717c.94-5.261.8-11.039,1.269-16.088a171.841,171.841,0,0,0,48.332,1.456c18.743-2.1,37.074-7.3,55.817-9.324,1.41-.164,2.832-.293,4.254-.411,6-.481,12.022-.587,18.05-.517,5.041,0,10.082.224,15.123.388l55.5,1.879c6.145.211,12.421.446,18.143,2.689,6.792,2.666,12.233,7.973,16.593,13.81.552.751,1.1,1.5,1.621,2.278a71.559,71.559,0,0,1,8.555,16.9c.224.611.435,1.174.635,1.844.529,1.632.987,3.276,1.4,4.944.317,1.3.6,2.607.858,3.922,1.293,6.505,2.056,13.152,4.1,19.434.141.458.294.916.458,1.363,2.456,6.881,6.534,13.046,9.613,19.657a72.977,72.977,0,0,1,5.053,14.949,73.851,73.851,0,0,1,.141,31.425Z" fill="#35323e"></path>
<path id="Path_16264" data-name="Path 16264" d="M461.206,526.6c-4.959-3.945-12.15-1.057-17.955,1.492a115.232,115.232,0,0,1-14.995,5.413,6.331,6.331,0,0,1-3.29.341c-2.35-.564-3.337-3.347-5.088-5.038-3.044-2.924-8.026-2.231-11.951-.646s-7.8,3.875-12.01,3.523c-4.488-.352-8.39-3.664-12.926-3.769-7.99-.188-14.7,9.652-22.256,7.045-4.607-1.585-8.226-7.574-12.762-5.871-3.525,1.339-3.842,6.212-5.969,9.394-2.5,3.711-7.38,4.756-11.552,6.4-13.149,5.191-21.857,19.834-20.141,33.855.952,7.739,4.7,14.832,7.18,22.218,7.356,21.478,4.83,45.7,14.1,66.419,1.175-1.1,1.833-1.515,2.973-2.607a27.156,27.156,0,0,0-1.586,19.493c.975,3.253,2.561,6.283,3.76,9.465a84.773,84.773,0,0,1,3.008,10.921l10.224,45.07c3.995,17.614,8,35.229,8.7,53.266a155.39,155.39,0,0,1-2.68,34.994c18.52-3.065,35.465-11.273,54.232-11.167,6.886,0,13.713,1.174,20.54,2.113A423,423,0,0,0,490.843,833a23.871,23.871,0,0,0,9.212-1.291c2.586-1.1,4.7-3.065,7.145-4.486,4.783-2.819,10.576-3.523,16.087-3.523,25.136-.458,49.355,8.737,74.326,11.978,9.859-20.68,10.446-45.458,2.879-67.076-2.245-6.424-5.265-12.683-6.158-19.435a98.314,98.314,0,0,1-.282-12.483,90.476,90.476,0,0,0-5.676-31.213c-1.457-3.91-3.208-7.891-3.055-12.06s2.209-8.056,4.23-11.743c4.1-7.516,8.226-15.1,14.019-21.443,5.935-6.552,13.361-11.543,20.706-16.44l18.132-12.166c-2.48-15.653-5.676-32.14-12.315-46.537s-16.569-27.632-30-36.051a99,99,0,0,0-14.172-7.046c-6.862-2.889-14.007-5.437-21.445-5.872-8.461-.481-16.793,1.785-25.148,3.194C513.029,543.732,482.076,543.192,461.206,526.6Z" fill="#003742"></path>
<path id="Path_16265" data-name="Path 16265" d="M659.471,798.239l-8.626,10.886L634.582,829.64l-18.8,23.709-5.252,6.624H600.339l-252.283.293-157.993.176h-7.051c-.94-2.936-1.809-5.871-2.609-8.924q-1.763-6.554-3.09-13.27c-.188-.857-.353-1.715-.505-2.584l57.321-37.448,21.552-.118,65.923-.375,36.816-.212h10.94l24.537-.129L580.9,796.314l9.565-.059h4.149L605.6,796.2l40.882-.235,7.849-2.982.576.61Z" fill="#3f3d56"></path>
<path id="Path_16266" data-name="Path 16266" d="M655.945,792.368l-.975,1.174-6.416,7.551-13.208,15.583-27.7,32.634-245.362-6.259-185.02-4.7c-.188-.858-.353-1.715-.505-2.584a221.978,221.978,0,0,1-3.7-45.715l20.517-10.5,4.7-2.419,36.581-18.789,32.1-16.44L350.7,752.782l18.543,2.408,8.39,1.08,12.28,1.6,1.034.141,192.565,24.954,21.281,2.759,12.491,1.621,38.5,5Z" fill="#504f60"></path>
<path id="Path_16267" data-name="Path 16267" d="M615.992,848.734l-.2,4.615-1.175,26.058-6.322,143.263-1.34,30.97-3.525,79.66-1.986,45-7.168-2.24q-5.571-1.77-11.129-3.62l17.192-312.362.365-6.552,7.567-2.349Z" fill="#3f3d56"></path>
<path id="Path_16268" data-name="Path 16268" d="M190.6,848.4l-.528,12.06-.776,17.614q-3.361-8.349-6.158-17.015l-.176-.576c-.94-2.936-1.809-5.871-2.609-8.925Z" fill="#3f3d56"></path>
 <path id="Path_16269" data-name="Path 16269" d="M497.894,670.84c29.853,0,54.055-32.6,54.055-72.807s-24.2-72.806-54.055-72.806-54.055,32.6-54.055,72.806S468.04,670.84,497.894,670.84Z" fill="#a1616a"></path>
<path id="Path_16270" data-name="Path 16270" d="M497.894,670.84c29.853,0,54.055-32.6,54.055-72.807s-24.2-72.806-54.055-72.806-54.055,32.6-54.055,72.806S468.04,670.84,497.894,670.84Z" opacity="0.1"></path>
<path id="Path_16271" data-name="Path 16271" d="M505.532,629.152A75.155,75.155,0,1,0,430.325,554,75.181,75.181,0,0,0,505.532,629.152Z" fill="#a1616a"></path>
<path id="Path_16272" data-name="Path 16272" d="M507.024,438.163a96.364,96.364,0,0,0-13.643,2.078c-11.892,2.889-22.174,9.3-32.186,15.6-4.489,2.83-9.107,5.778-11.892,9.935-5.006,7.456-3.067,16.945-5.876,25.224-1.457,4.251-4.136,8.067-6.4,12.024-6.24,10.851-9.507,22.77-12.715,34.572-.658,2.442-.846,5.754,1.822,6.693a7.349,7.349,0,0,0,4.559-.516c8.426-2.783,19.131-3.582,25.382,2.067s5.723,15.665,13.162,19.963c8.519,4.967,21.821-1.034,29.554,4.826,3.313,2.513,4.512,6.541,7.226,9.571,6.323,7.045,18.485,6.705,28.6,5.284,5.8-.822,12.926-1.374,16.451,2.7,1.692,1.926,2.174,4.568,4.136,6.306,3.526,3.147,9.977,1.55,13.42-1.679s5.088-7.6,7.956-11.227c5.581-7.045,15.393-10.885,21.151-17.849,4.818-5.872,6.276-13.223,7.592-20.316l4.9-26.292c1.986-10.663,3.8-22.312-2.209-31.706-2.139-3.382-5.206-6.295-7.051-9.794-1.234-2.349-1.927-4.826-3.361-7.046a29.284,29.284,0,0,0-6.028-6.083l-11.6-9.594a97.589,97.589,0,0,0-12.68-9.394C550.738,433.865,525.943,436.4,507.024,438.163Z" fill="#464353"></path>
<path id="Path_16273" data-name="Path 16273" d="M259.312,631.759c-2.785,2.959-5.359,6.153-8.343,8.924a101.155,101.155,0,0,1-8.226,6.577q-6.91,5.166-13.514,10.7a75.7,75.7,0,0,0-12.385,12.366c-6.276,8.42-9.249,18.894-15.124,27.6-5.194,7.715-12.515,13.81-17.791,21.466a33.2,33.2,0,0,0-5.077,10.651,49.476,49.476,0,0,0-1.046,11.262c-.1,6.2-.2,12.471,1.07,18.542s4.054,12.036,8.825,16.017c4.43,3.7,10.153,5.4,15.758,6.811,2.891.717,6.017,1.386,8.766.247a14.458,14.458,0,0,0,5.1-4.3l14.3-16.44c9.566-11.039,19.507-22.312,32.633-28.771,4.113-2.008,8.449-3.523,12.574-5.472,17.485-8.42,29.847-25.658,34.642-44.447,1.175-4.592,1.927-9.277,2.691-13.963l2.068-12.847a4.091,4.091,0,0,0,0-1.961,4.235,4.235,0,0,0-1.5-1.785,249.2,249.2,0,0,1-27.9-26.3c-2.045-2.255-3.96-5.343-6.322-7.234-2.962-2.348-2.738-2.172-6.3,0a75.523,75.523,0,0,0-14.9,12.366Z" fill="#a1616a"></path>
<path id="Path_16274" data-name="Path 16274" d="M357.139,717.248a2.213,2.213,0,0,0-2.99-1.1,2.208,2.208,0,0,0-1.137,1.306,2.216,2.216,0,0,0,.155,1.725l-1.175.575,35.042,71.773,6.334-3.088-35.042-71.82Z" fill="#3f3d56"></path>
<path id="Path_16275" data-name="Path 16275" d="M259.312,631.759c-2.785,2.959-5.359,6.153-8.343,8.924a101.155,101.155,0,0,1-8.226,6.577q-6.91,5.166-13.514,10.7a75.7,75.7,0,0,0-12.385,12.366c-6.276,8.42-9.249,18.894-15.124,27.6-5.194,7.715-12.515,13.81-17.791,21.466a33.2,33.2,0,0,0-5.077,10.651,49.476,49.476,0,0,0-1.046,11.262c-.1,6.2-.2,12.471,1.07,18.542s4.054,12.036,8.825,16.017c4.43,3.7,10.153,5.4,15.758,6.811,2.891.717,6.017,1.386,8.766.247a14.458,14.458,0,0,0,5.1-4.3l14.3-16.44c9.566-11.039,19.507-22.312,32.633-28.771,4.113-2.008,8.449-3.523,12.574-5.472,17.485-8.42,29.847-25.658,34.642-44.447,1.175-4.592,1.927-9.277,2.691-13.963l2.068-12.847a4.091,4.091,0,0,0,0-1.961,4.235,4.235,0,0,0-1.5-1.785,249.2,249.2,0,0,1-27.9-26.3c-2.045-2.255-3.96-5.343-6.322-7.234-2.962-2.348-2.738-2.172-6.3,0a75.523,75.523,0,0,0-14.9,12.366Z" opacity="0.04"></path>
<path id="Path_16276" data-name="Path 16276" d="M664.417,764.031c-.117,7.492-.411,15.207-3.525,22.042-1.34,2.959-3.42,5.871-6.534,6.846a15.2,15.2,0,0,1-5.746.211,207.74,207.74,0,0,0-68.732,5.449c5.993-11.978,2.55-26.34,4.207-39.633.458-3.628,1.293-7.2,1.61-10.838,1.175-12.918-4.36-25.459-6.9-38.212a85.445,85.445,0,0,1,0-33.444,22.3,22.3,0,0,1,2.879-8.044,18.883,18.883,0,0,1,6.6-5.743c9.518-5.413,20.741-6.036,31.434-5.319,7.2.481,21.646-.2,27.65,4.227,6.569,4.85,8.649,21.138,10.424,28.665a242.423,242.423,0,0,1,5.405,35.076A376.379,376.379,0,0,1,664.417,764.031Z" fill="#a1616a"></path>
<path id="Path_16277" data-name="Path 16277" d="M243.482,790.031l42.3,28.184,190.367-7.046L350.417,790.031Z" fill="#fff"></path>
<path id="Path_16278" data-name="Path 16278" d="M299.265,566.1c-6.945,6.118-12.832,13.328-19.412,19.846-9.025,8.948-19.284,16.557-29.5,24.132a21.943,21.943,0,0,1,15.277,15.383c.446,1.726.67,3.523,1.175,5.214,1.175,4,3.76,7.457,6.533,10.569,11.916,13.422,28.591,23.357,35.618,39.926a3.688,3.688,0,0,0,1.41,2,3.1,3.1,0,0,0,1.822.212c6.357-.67,11.222-5.79,15.276-10.769,8.461-10.568,15.805-22.241,19.977-35.135s4.841-27.15.293-39.926c-2.267-6.365-5.769-12.213-9.248-18q-4.57-7.6-9.118-15.172c-1.587-2.666-3.608-8.079-6.722-9.4C315.928,552.095,303.578,561.794,299.265,566.1Z" fill="#003a45"></path>
<path id="Path_16279" data-name="Path 16279" d="M645.381,642l10,23.486a72.695,72.695,0,0,0-65.688,9.1c-5.7,4.074-10.929,9.194-13.5,15.7a6.861,6.861,0,0,1-6.8-2.666,13.633,13.633,0,0,1-2.515-7.186c-.928-9.019,2.491-17.861,5.876-26.293,1.574-3.946,3.2-7.973,5.993-11.179s6.51-5.32,10.223-7.316a227.756,227.756,0,0,1,37.075-16.37c5.4-1.75,11.069-1.714,14.1,3.335C643.654,628.635,642.631,635.587,645.381,642Z" fill="#003b47"></path>
<path id="Path_16280" data-name="Path 16280" d="M243.73,712.468c2.5,2,4.7,4.357,7.273,6.259a51.93,51.93,0,0,0,8.649,4.85l11.587,5.566a64.914,64.914,0,0,0,11.222,4.556c4.959,1.327,10.165,1.457,15.147,2.69,6.287,1.55,12.033,4.779,18.226,6.646s13.443,2.173,18.614-1.714c3.231-2.431,5.676-6.447,9.683-7.046,2.585-.341,5.076.9,7.379,2.114l30.154,15.841c4.065,2.137,8.366,4.509,10.493,8.584s.694,10.264-3.784,11.32a40.988,40.988,0,0,1-4.7.27c-1.551.188-3.243,1.1-3.455,2.666a5.355,5.355,0,0,0,.74,2.76c1.352,3.1,1.751,6.811.177,9.817s-5.441,4.873-8.532,3.523c.529,4.544-4.418,7.727-8.825,8.936-11.116,3.042-22.9,1.175-34.266-.751-4.465-.752-9-1.527-13.067-3.523-1.951-.951-3.76-2.173-5.734-3.053-5.418-2.408-11.575-2.091-17.5-1.985-27.391.482-54.548-4.591-81.482-9.641-4.994-.939-10.129-1.938-14.4-4.7-8.225-5.355-11.281-16.346-9.929-26.07s6.287-18.53,11.14-27.079l6.287-11.074a14.247,14.247,0,0,1,3.384-4.462C217.466,700.713,235.809,706.1,243.73,712.468Z" fill="#a1616a"></path>
<path id="Path_16281" data-name="Path 16281" d="M243.73,712.468c2.5,2,4.7,4.357,7.273,6.259a51.93,51.93,0,0,0,8.649,4.85l11.587,5.566a64.914,64.914,0,0,0,11.222,4.556c4.959,1.327,10.165,1.457,15.147,2.69,6.287,1.55,12.033,4.779,18.226,6.646s13.443,2.173,18.614-1.714c3.231-2.431,5.676-6.447,9.683-7.046,2.585-.341,5.076.9,7.379,2.114l30.154,15.841c4.065,2.137,8.366,4.509,10.493,8.584s.694,10.264-3.784,11.32a40.988,40.988,0,0,1-4.7.27c-1.551.188-3.243,1.1-3.455,2.666a5.355,5.355,0,0,0,.74,2.76c1.352,3.1,1.751,6.811.177,9.817s-5.441,4.873-8.532,3.523c.529,4.544-4.418,7.727-8.825,8.936-11.116,3.042-22.9,1.175-34.266-.751-4.465-.752-9-1.527-13.067-3.523-1.951-.951-3.76-2.173-5.734-3.053-5.418-2.408-11.575-2.091-17.5-1.985-27.391.482-54.548-4.591-81.482-9.641-4.994-.939-10.129-1.938-14.4-4.7-8.225-5.355-11.281-16.346-9.929-26.07s6.287-18.53,11.14-27.079l6.287-11.074a14.247,14.247,0,0,1,3.384-4.462C217.466,700.713,235.809,706.1,243.73,712.468Z" opacity="0.04"></path>
<path id="Path_16282" data-name="Path 16282" d="M602.443,732.76c-6.122,2.889-13.15,3.171-19.542,5.39s-11.822,6.212-17.685,9.465c-15.277,8.525-32.9,11.743-50.213,14.808-10.493,1.879-21.152,3.758-31.728,3.312-14.312-.611-28.061-5.379-41.927-8.972s-28.661-6.013-42.4-1.973a47.7,47.7,0,0,0-31.141,29.863c-2.879,8.443-3.278,17.544-2.726,26.445,2.891,2.125,6.933-.822,8.508-4.052s2.432-7.186,5.488-9.065c5.3,1.8,6.592,8.854,10.963,12.342,2.727,2.184,6.37,2.759,9.836,3.253l17.862,2.536c4.3.611,9.3,1.022,12.409-2.008,1.516-1.468,2.35-3.523,3.737-5.1,2.843-3.148,7.591-3.688,11.821-3.265,13.208,1.315,25.594,9.876,38.708,7.844,4.513-.693,8.708-2.618,13.009-4.133,25.488-8.995,53.808-3.523,80.33-8.678,10.118-1.961,19.859-5.437,29.483-9.1,5.23-1.985,10.517-4.063,14.983-7.422a31.507,31.507,0,0,0,12.174-27.96A31.96,31.96,0,0,0,623.1,735.578c-2.068-1.761-4.782-5.131-7.262-6.235C611.1,727.264,606.462,730.869,602.443,732.76Z" fill="#a1616a"></path>
<g id="Group_445" data-name="Group 445" opacity="0.1">
<path id="Path_16283" data-name="Path 16283" d="M568.1,582.744c-1.962-1.738-2.444-4.38-4.136-6.306-3.525-4.075-10.646-3.523-16.451-2.7-10.118,1.421-22.327,1.75-28.6-5.285-2.715-3.029-3.914-7.045-7.227-9.57-7.733-5.872-21.035.141-29.554-4.826-7.439-4.334-6.957-14.386-13.161-19.964s-16.957-4.849-25.383-2.066a7.349,7.349,0,0,1-4.559.516c-2.668-.939-2.48-4.251-1.822-6.693,3.208-11.8,6.475-23.721,12.715-34.572,2.268-3.957,4.947-7.774,6.4-12.025,2.55-7.445,1.246-15.864,4.6-22.91-3.6,2.348-7.051,4.908-9.272,8.22-5.006,7.457-3.067,16.945-5.875,25.224-1.457,4.251-4.136,8.067-6.4,12.025-6.24,10.85-9.507,22.77-12.715,34.571-.658,2.443-.846,5.754,1.821,6.694a7.346,7.346,0,0,0,4.56-.517c8.425-2.783,19.13-3.582,25.382,2.067s5.723,15.665,13.161,19.963c8.52,4.967,21.822-1.033,29.554,4.826,3.314,2.513,4.513,6.541,7.227,9.571,6.322,7.046,18.484,6.7,28.6,5.284,5.8-.822,12.926-1.374,16.452,2.7,1.692,1.926,2.174,4.568,4.136,6.306,3.525,3.147,9.977,1.55,13.42-1.679a35.6,35.6,0,0,0,5.617-7.68C573.534,584.846,570.279,584.705,568.1,582.744Z" opacity="0.1"></path>
<path id="Path_16284" data-name="Path 16284" d="M589.516,569.827a33.227,33.227,0,0,0-2.1,3.041c4.513-3.217,9.295-6.224,12.668-10.322a25.017,25.017,0,0,0,2.35-3.382C597.741,562.523,592.853,565.611,589.516,569.827Z" opacity="0.1"></path>
</g>
<path id="Path_16285" data-name="Path 16285" d="M826.923,802.361l3.525,337.029,16.452-2.35-3.526-334.679Z" fill="#3f3d56"></path>
<path id="Path_16286" data-name="Path 16286" d="M925.632,863.426l3.525,337.024,16.452-2.35-3.526-334.674Z" fill="#3f3d56"></path>
<path id="Path_16287" data-name="Path 16287" d="M1232.96,1033.68l-.07-6.47v-3.86l-.63-59.275-.97-92.676-.17-8h-16.45l.09,7.7.51,49.638.23,21.489.18,17.4.31,30.086.19,17.748v1.87l.24,23.33.22,20.56,1.33-1.48q3.24-3.6,6.33-7.33Z" fill="#3f3d56"></path>
<path id="Path_16288" data-name="Path 16288" d="M907.417,918.029l-9.4,14.045,9.4,63.988,79.908,21.858H1116.59l77.55,4.68,36.95-25.27-6.39-43.4-28.21-35.9Z" fill="#003b47"></path>
<path id="Path_16289" data-name="Path 16289" d="M898.017,932.074l-4.7,39.011s-24.678,76.485,173.913,71.795,164.52-20.29,164.52-20.29l-1.18-45.258s6.92,21.419-94.01,18.519S941.5,983.579,941.5,983.579,906.243,989.815,898.017,932.074Z" fill="#3f3d56"></path>
<path id="Path_16290" data-name="Path 16290" d="M1063.47,582.415c-11.33,5.155-19.9,15.148-25.65,26.2s-8.98,23.181-12.16,35.23c-3.36,12.7-6.74,25.447-8.48,38.47-3.1,23.157-.77,47.5,9.88,68.3s30.31,37.578,53.35,41.582c8.89,1.562,18.03,1.245,27.02.317A219.7,219.7,0,0,0,1155.15,782c16.16-5.46,32.98-13.868,40.17-29.357,4.17-8.984,4.52-19.224,4.32-29.111a309.208,309.208,0,0,0-12.11-79.606c-2.18-7.516-4.7-15.09-9.31-21.42s-10.9-10.968-17.33-15.265C1133.4,588.744,1097.28,567.055,1063.47,582.415Z" fill="#fbbebe"></path>
<path id="Path_16291" data-name="Path 16291" d="M1063.47,582.415c-11.33,5.155-19.9,15.148-25.65,26.2s-8.98,23.181-12.16,35.23c-3.36,12.7-6.74,25.447-8.48,38.47-3.1,23.157-.77,47.5,9.88,68.3s30.31,37.578,53.35,41.582c8.89,1.562,18.03,1.245,27.02.317A219.7,219.7,0,0,0,1155.15,782c16.16-5.46,32.98-13.868,40.17-29.357,4.17-8.984,4.52-19.224,4.32-29.111a309.208,309.208,0,0,0-12.11-79.606c-2.18-7.516-4.7-15.09-9.31-21.42s-10.9-10.968-17.33-15.265C1133.4,588.744,1097.28,567.055,1063.47,582.415Z" opacity="0.05"></path>
<path id="Path_16292" data-name="Path 16292" d="M1050.75,730.223a53.059,53.059,0,0,0,11.75,11.743c11.18,7.727,25.54,8.772,39.13,9.2,10.9.329,23.41-.294,30.24-8.8,3.08-3.828,4.47-8.713,5.72-13.469a598.4,598.4,0,0,0,16.33-88.977l31.12.106c13.46,57.623,12.36,117.524,11.18,176.7l-1.7,86.288-20.05-2.126c-47.6-5.037-95.28-10.075-143.14-10.944a819.332,819.332,0,0,0-84.041,2.771L990.944,763c5.664-16.863,11.386-33.949,12.716-51.67,1.91-25.705-5.3-52.843,4.7-76.623.8-1.914,1.81-3.9,3.63-4.9s4.12-.751,6.22-.481c3.95.528,16.01,0,18.88,2.525,4.23,3.664,1.43,4.215-.06,10.122-2.67,10.569-5.19,20.351-5.16,31.366C1031.91,693.338,1038.11,714.452,1050.75,730.223Z" fill="#003a45"></path>
<path id="Path_16293" data-name="Path 16293" d="M1232.96,1033.68q7.86-10.44,14.82-21.6c-2.35-5.03-4.94-9.93-7-15.066-3.15-7.868-4.96-16.2-6.74-24.484q-.915-4.229-1.82-8.455c-6.58-30.661-12.76-61.757-14.05-92.841-.11-2.583-.19-5.167-.22-7.75v-9.653c.14-7.046.59-14.15,1.4-21.219.15-1.386.33-2.772.52-4.157a6.978,6.978,0,0,1,.11-.905l79.91-2.912,6.72-.247c4.62-.164,9.51-.422,13.32-3.041,6.4-4.392,7.15-13.4,7.05-21.137a313.6,313.6,0,0,0-6.63-58.187c-3.03-14.4-7.36-29.111-17.06-40.173-7.97-9.089-19.51-15.7-23.66-27.009-1.54-4.2-1.92-8.819-3.92-12.835s-5.3-6.964-8.42-10.064a140.155,140.155,0,0,1-26.91-37.249c-4.75-9.582-9.91-20.151-16.13-26.774-.31-.34-.61-.657-.93-.963-5.29-5.225-11.34-7.515-18.51-3.957a23.575,23.575,0,0,0-3.66,2.278h0a44.537,44.537,0,0,0-6.97,6.623,159.127,159.127,0,0,0-18.96,27.009,151.593,151.593,0,0,0-9.68,21.137,145.929,145.929,0,0,0-5.23,17.615c-1.01,4.427-1.81,8.9-2.44,13.387-2.35,16.863-2.35,34.055-2.02,51.129.35,15.689,1.04,31.413,2.46,47.043q.54,5.672,1.18,11.332,1.29,11.19,3.2,22.311c.5,2.831,1.02,5.661,1.59,8.479.15.752.3,1.5.45,2.243l.07.317a191,191,0,0,1,3.61,19.857q.135,1.257.21,2.5a96.266,96.266,0,0,1-.09,11.52c-.27,4.532-.7,9.053-.91,13.586a22.708,22.708,0,0,1-.08,2.349c-.06,2.29,0,4.58,0,6.869a109.1,109.1,0,0,0,1.95,16.312,105.694,105.694,0,0,0,10.16,28.7c.45.845.91,1.679,1.37,2.5,5.96,10.639,13.48,20.4,18.99,31.283a135.112,135.112,0,0,1,10.57,30.779q1.185,5.272,2.24,10.568c1.09,5.637,2.06,11.319,3.06,17.009.1.56.2,1.17.31,1.69,1.33,7.54,2.73,15.04,4.52,22.4,1.05,4.29,2.22,8.52,3.6,12.67Z" fill="#464353"></path>
<path id="Path_16294" data-name="Path 16294" d="M1217.26,941.116c0,1.057-.07,2.114-.12,3.183a149.806,149.806,0,0,1-1.42,15.395,100.444,100.444,0,0,1-5.09,20.421,69.35,69.35,0,0,1-6.06,12.459,57.4,57.4,0,0,1-7.55,9.716c-7.05,7.32-17.2,9.66-27.03,12.75a66.774,66.774,0,0,0-13.03,5.32c-.74.41-1.47.86-2.17,1.33l-12.29,8.13c-3.83,2.53-7.75,5.15-10.38,8.89a18.869,18.869,0,0,0-1.17,1.99,44.673,44.673,0,0,0-3.62,10.85c-6.4,26.61-12.8,53.24-17.18,80.25-.3,1.78-.58,3.58-.88,5.38l-.11.56a3.489,3.489,0,0,0-.19-.39c-31.44,19-64.05,36.15-97.65,49.88l-7.3-61.07a73.815,73.815,0,0,1-.75-15c.69-7.91,3.91-15.4,4.78-23.28a39.565,39.565,0,0,0-4.19-22.39c-1.39-2.68-3.13-5.31-3.44-8.31s1.41-5.73,4.41-6.03c2.35-2.61,2.54-6.17,1.85-9.69a28.018,28.018,0,0,0-1.65-5.37c-1.99-4.9-4.52-10.25-2.81-15.26a5.639,5.639,0,0,0,.59-2.94.6.6,0,0,0,0-.19c-.4-1.31-1.96-1.89-2.77-3-1.529-2.08,0-4.91.94-7.31a27.907,27.907,0,0,0,1.57-7.993c.13-1.515.23-3.041.39-4.544a47.052,47.052,0,0,1,20.4-33.656c4.57-3.077,9.66-5.32,14.33-8.22a131.547,131.547,0,0,0,13.65-10.569q15.525-12.917,32.28-24.355a407.516,407.516,0,0,1,37.28-22.617q4.11-2.219,8.22-4.321,4.485-2.349,9.01-4.451c9.69-4.615,20.67-2.889,31.38.188,4.49,1.28,8.92,2.806,13.2,4.192a61.254,61.254,0,0,1,11.98,5.378c9.49,5.567,17.32,13.787,20.58,24.168v.2C1217.32,927.295,1217.45,934.27,1217.26,941.116Z" fill="#f86d70"></path>
<path id="Path_16295" data-name="Path 16295" d="M1217.26,941.116c0,1.057-.07,2.114-.12,3.183a149.806,149.806,0,0,1-1.42,15.395,100.444,100.444,0,0,1-5.09,20.421,69.35,69.35,0,0,1-6.06,12.459,57.4,57.4,0,0,1-7.55,9.716c-7.05,7.32-17.2,9.66-27.03,12.75a66.774,66.774,0,0,0-13.03,5.32c-.74.41-1.47.86-2.17,1.33l-12.29,8.13c-3.83,2.53-7.75,5.15-10.38,8.89a18.869,18.869,0,0,0-1.17,1.99,44.673,44.673,0,0,0-3.62,10.85c-6.4,26.61-12.8,53.24-17.18,80.25-.3,1.78-.58,3.58-.88,5.38l-.11.56a3.489,3.489,0,0,0-.19-.39c-31.44,19-64.05,36.15-97.65,49.88l-7.3-61.07a73.815,73.815,0,0,1-.75-15c.69-7.91,3.91-15.4,4.78-23.28a39.565,39.565,0,0,0-4.19-22.39c-1.39-2.68-3.13-5.31-3.44-8.31s1.41-5.73,4.41-6.03c2.35-2.61,2.54-6.17,1.85-9.69a28.018,28.018,0,0,0-1.65-5.37c-1.99-4.9-4.52-10.25-2.81-15.26a5.639,5.639,0,0,0,.59-2.94.6.6,0,0,0,0-.19c-.4-1.31-1.96-1.89-2.77-3-1.529-2.08,0-4.91.94-7.31a27.907,27.907,0,0,0,1.57-7.993c.13-1.515.23-3.041.39-4.544a47.052,47.052,0,0,1,20.4-33.656c4.57-3.077,9.66-5.32,14.33-8.22a131.547,131.547,0,0,0,13.65-10.569q15.525-12.917,32.28-24.355a407.516,407.516,0,0,1,37.28-22.617q4.11-2.219,8.22-4.321,4.485-2.349,9.01-4.451c9.69-4.615,20.67-2.889,31.38.188,4.49,1.28,8.92,2.806,13.2,4.192a61.254,61.254,0,0,1,11.98,5.378c9.49,5.567,17.32,13.787,20.58,24.168v.2C1217.32,927.295,1217.45,934.27,1217.26,941.116Z" opacity="0.1"></path>
<path id="Path_16296" data-name="Path 16296" d="M1105.68,746.6a2.18,2.18,0,0,0-.51-.723,2.141,2.141,0,0,0-.75-.466,2.181,2.181,0,0,0-.87-.134,2.2,2.2,0,0,0-1.56.756,2.1,2.1,0,0,0-.43.769,2.015,2.015,0,0,0-.1.878,2.1,2.1,0,0,0,.25.846l-1.17.575,35.04,71.774,6.33-3.089-35.04-71.82Z" fill="#3f3d56"></path>
<path id="Path_16297" data-name="Path 16297" d="M1149.49,671.426a75.156,75.156,0,1,0-75.21-75.155A75.181,75.181,0,0,0,1149.49,671.426Z" fill="#fbbebe"></path>
<path id="Path_16298" data-name="Path 16298" d="M1248.75,549.746a100.028,100.028,0,0,0-2.65-17.72c-4.42-18.989-12.5-37.683-26.4-51.317a102.7,102.7,0,0,0-3.06-9.852,1.981,1.981,0,0,0-.09-.235,110.111,110.111,0,0,0-17.74-31.436c-4.41-5.473-10.12-10.874-17.15-11.086-1.97-.07-4.06.27-5.87-.634a10.622,10.622,0,0,1-3.28-3.358,30.791,30.791,0,0,0-29.8-11.145l-.73.153c-.41.082-.82.176-1.17.282s-.99.282-1.48.434c.54.893,1.06,1.8,1.58,2.713q2.1,3.723,3.88,7.61,1.485,3.24,2.74,6.587c-12.04,1.374-21.84,9.911-30.79,18.038L1095.66,467.9a.687.687,0,0,0-.11.106l-.61.587c-.15.153-.3.3-.44.47a1.182,1.182,0,0,0-.16.164c-.17.188-.34.388-.5.587a8.216,8.216,0,0,0-.79,1.175,3.935,3.935,0,0,0-.31.552,1.117,1.117,0,0,0-.08.176c-.07.16-.14.325-.2.493v.07c-.03.1-.06.195-.08.294a3.514,3.514,0,0,0,.2,2.49l13.9.152h1.63c.08,1.856.13,3.723.2,5.578a79.926,79.926,0,0,0-6.34,5.284,68.29,68.29,0,0,0-6.19,6.53c-12.54,15.136-19.09,34.689-19.75,54.37v7.187c0,1.174.11,2.348.2,3.522a8.776,8.776,0,0,0,1.18,4.357,3.933,3.933,0,0,0,.33.423,8.039,8.039,0,0,0,2.49,1.832l1.01.493c.51.247.99.481,1.46.752,4.43,2.5,7.05,7.327,11.08,10.427.23.176.47.353.7.505l.53.353.33.211.45.258a9.016,9.016,0,0,0,.9.482h0l.57.282h.09c.47.211.94.411,1.42.587l.67.235.2.07c.19.059.39.129.59.176q.6.177,1.17.317l1.18.259c.46.082.93.164,1.4.223l.69.094.71.07c1.12.1,2.24.161,3.38.176a84.53,84.53,0,0,0,10.66-.74L1149.41,576c6.8-.787,13.75-1.574,20.46-.188,5.68,1.174,10.92,3.875,16.45,5.789,1.24.434,2.49.834,3.75,1.174.45.129.92.27,1.39.388l.65.164,1.51.364c.54.129,1.08.259,1.62.364.76.165,1.51.306,2.28.447.51.105,1.04.187,1.57.281h.11l1.5.235h.37l1.11.153c.54.082,1.08.153,1.64.211,1.19.149,2.39.278,3.59.388,1.94.188,3.89.329,5.88.446l1.95.117,1.95.094,5.87.259h1.08a30.316,30.316,0,0,0,7.31-.376c.43-.082.84-.176,1.25-.294s.75-.234,1.17-.375c4.41-1.691,7.63-5.578,9.86-9.735.47-.881.91-1.762,1.31-2.666s.76-1.82,1.09-2.736c.41-1.174.76-2.29,1.07-3.464.09-.317.18-.634.25-.963s.23-.975.33-1.468c.29-1.351.51-2.713.68-4.087a11.807,11.807,0,0,1,.15-1.315c.11-1.174.19-2.266.24-3.417v-2.631C1248.83,552.212,1248.75,550.956,1248.75,549.746Zm-30.13-70.106c-.95-.892-1.93-1.749-2.91-2.56a12.017,12.017,0,0,1,2.9,2.56Z" fill="#464353"></path>
<path id="Path_16299" data-name="Path 16299" d="M1005.15,592.137c-8.847-1.092-17.625-4.967-26.356-3.065-5.465,1.174-10.165,4.568-14.537,8.056A176.658,176.658,0,0,0,923.4,643.806a24.651,24.651,0,0,0-3.772,8.831c-.564,3.664.435,7.386,1.622,10.9,8.037,23.733,25.229,43.555,33.055,67.358,8.226,25.037,5.371,52.4-.693,78.045a326.049,326.049,0,0,1-36.24,90.069,51.417,51.417,0,0,1-8.343,11.414c-4.278,4.11-10.024,7.046-12.562,12.424-1.175,2.349-1.516,5.026-2.351,7.539-2.35,7.046-8.037,13.082-8.59,20.515-.411,5.672,2.28,11.038,3.913,16.44a45.269,45.269,0,0,1-.834,28.3c-5.958,16.321-21.54,31.161-17.015,47.951,10.094-2.9,21.281-6.67,26.04-16.03,1.68-3.32,2.515-7.26,5.347-9.68,5.652-4.8,15.276-.46,21.281-4.87,4.536-3.36,4.7-10.24,2.679-15.527s-5.5-9.935-7.051-15.372c-2.7-9.8,1.622-20.175.823-30.309-.376-4.7-1.821-9.2-1.927-13.868-.2-9.078,4.83-17.615,11.516-23.78s14.947-10.252,23.079-14.279l30.741-15.266c11.151-5.52,23.373-12.248,27.023-24.132,1.39-4.451,1.4-9.2,1.47-13.845,1.05-71.057,18.86-140.682,36.57-209.508,2.75-10.662,5.55-21.372,9.64-31.612s12.09-18.46,16.17-27.972C1051.33,574.769,1029.72,595.214,1005.15,592.137Z" fill="#464353"></path>
<path id="Path_16300" data-name="Path 16300" d="M1174.61,1037.91c2.72,16.44,4.37,33.24,5.67,49.95-21.15,17.52-43.93,32.76-67.07,46.9-1.31.81-2.64,1.61-3.97,2.35l-.1.56c-.06-.13-.12-.26-.19-.39a17.724,17.724,0,0,0-8.84-8.71q-13.005-27.3-25.99-54.61c-4.7-9.82-9.4-19.75-11.75-30.35a5.467,5.467,0,0,0-.14-.68c-1.79-8.22-2.2-16.76-3.39-25.09a71.934,71.934,0,0,0-3.21-14.02c-1.41-4.048-3.35-7.981-5.06-11.939-2.12-4.885-3.89-9.829-3.97-15.1,0-1.68.1-3.523-.72-4.932a12.686,12.686,0,0,0-3.21-3.1,12.213,12.213,0,0,1-3.95-11.167c-7.05.364-11.02,7.938-13.85,14.361a78.6,78.6,0,0,1-10.06,17.615,33.386,33.386,0,0,1-11.14,9.265c-.39.188-.78.376-1.17.54-9.817,4.319-21.274,2.8-31.909.849-9.295-1.706-18.907-3.82-26.381-9.6l-.8-.634a34.552,34.552,0,0,1-5.876-6.271c-6.263-8.549-9.036-19.81-10.576-30.532-.141-1.01-.282-2.02-.411-3.03a112.9,112.9,0,0,1-.881-22.875c.141-1.879.341-3.758.587-5.625.165-1.174.341-2.442.541-3.664a.309.309,0,0,1,0-.1c.306-1.938.635-3.887.964-5.872,1.175-6.658,2.35-13.493,5.875-19.223a36.409,36.409,0,0,1,8.649-9.254c1.269-1,2.573-1.949,3.89-2.865,2.138-1.48,4.336-2.889,6.568-4.216a113.563,113.563,0,0,1,17.627-8.572c1.457-.564,2.938-1.092,4.418-1.6a34.7,34.7,0,0,1,17.956-1.421,94.479,94.479,0,0,0,16.078.939c13.78-.27,27.62-2.9,41.38-4.6,19.11-2.349,39.64-2.63,56.3,7.046.8.458,1.58.939,2.35,1.444,8.23,5.379,14.86,12.918,20.2,21.337,1.18,1.774,2.2,3.594,3.21,5.437a137.213,137.213,0,0,1,6.31,13.035,16.142,16.142,0,0,1,1.75,7.046,9.231,9.231,0,0,1-.18,1.386c-.32,1.667-.96,3.288-1.18,4.979-.74,6.4,4.7,11.743,6.73,17.837,1.32,3.969,1.18,8.22,1.92,12.4,1.07,5.871,3.95,11.156,6.53,16.44a204.971,204.971,0,0,1,10.46,26.269c2.05,6.26,3.8,12.61,5.34,19.02.5,2.06.97,4.13,1.42,6.19C1172.64,1026.75,1173.68,1032.31,1174.61,1037.91Z" fill="#f86d70"></path>
<path id="Path_16301" data-name="Path 16301" d="M1299.9,864.012v8.221l-1.51-.024-1.69-.023-18.9-.235-46.56-.611-13.07-.164-3.38-.047-19.61-.247-27.64-.364-58.64-.763-101.75-1.315-36.723-.47-14.736-.188-13.56-.176-8.449-.118-8-.1-59.331-.764-16.451-.211-3.585-.047-2.326-6-16.91-43.578-3.091-7.962,2.351-9.394,10.576,7.046,6.51.81L950.6,820.6l20.118,2.5,42.659,5.308,41.78,5.19,16.39,2.032,96.93,12.048,27.09,3.37,22.42,2.783,79.72,9.911Z" fill="#3f3d56"></path>
<path id="Path_16302" data-name="Path 16302" d="M826.336,799.426l21.152,55.192,452.412,9.394V804.123Z" fill="#504f60"></path>
<path id="Path_16303" data-name="Path 16303" d="M849.838,860.488l3.525,337.022,16.452-2.35-3.526-334.672Z" fill="#3f3d56"></path>
<path id="Path_16304" data-name="Path 16304" d="M1298.39,872.2h-1.69a372.122,372.122,0,0,1-13.55,61.992l-5.35-62.238-.22-2.654,19.76-2.278.66-.071Z" fill="#3f3d56"></path>
<path id="Path_16305" data-name="Path 16305" d="M1234.1,832.306l-172.16,3.523-53.46-17.615,143.36-8.22Z" fill="#fff"></path>
<path id="Path_16306" data-name="Path 16306" d="M1018.15,763.821a11.528,11.528,0,0,0-4.7,3.347,12.33,12.33,0,0,0-1.75,5.331l-2.89,17.227a7.6,7.6,0,0,0,.22,4.78c.75,1.444,2.94,2.2,4.03,1-.14,3.37.15,6.964,2.12,9.712s6.07,4.192,8.84,2.278a5.731,5.731,0,0,0,4.01,2.665,5.739,5.739,0,0,0,4.63-1.327c-1.67.564-1.79,3.112-.6,4.4a7.673,7.673,0,0,0,4.8,1.914,117.3,117.3,0,0,0,60.98-7.668c1.83-.752-2.97-23.193-3.45-25.494-1.18-5.414-1.76-12.025-6.33-15.665-10.93-8.714-30.35-10.428-43.66-9.4a75.246,75.246,0,0,0-26.25,6.893Z" fill="#fbbebe"></path>
<path id="Path_16307" data-name="Path 16307" d="M1193.31,766.427c-42.5.81-85.89,1.5-126.45-11.215a85.74,85.74,0,0,1-.78,45.645L1264.82,817.3c8.42.692,43.36,4.638,51.57,2.653s-68.92-27.373-65.81-35.229c8.57-21.642,37.27-34.324,16.6-35.135C1241.09,748.554,1219.6,765.934,1193.31,766.427Z" opacity="0.1"></path>
<path id="Path_16308" data-name="Path 16308" d="M1194.48,768.776c-42.5.811-85.88,1.5-126.45-11.214a85.639,85.639,0,0,1-.77,45.645l198.73,16.44c8.43.693,43.36,4.7,51.58,2.654s6.28-12.107,9.4-19.963c8.56-21.642-37.95-49.591-58.62-50.4C1242.26,750.9,1220.77,768.283,1194.48,768.776Z" fill="#464353"></path>
<path id="Path_16309" data-name="Path 16309" d="M1126.9,772.04a11.426,11.426,0,0,1,4.7,3.347,12.5,12.5,0,0,1,1.77,5.331l2.89,17.227a7.668,7.668,0,0,1-.23,4.78c-.75,1.444-2.94,2.2-4.03,1,.13,3.37-.15,6.963-2.11,9.711s-6.08,4.193-8.86,2.278a5.8,5.8,0,0,1-1.71,1.774,5.746,5.746,0,0,1-6.93-.435c1.67.564,1.8,3.112.61,4.4a7.7,7.7,0,0,1-4.8,1.914,117.3,117.3,0,0,1-60.98-7.668c-1.82-.752,2.96-23.193,3.46-25.494,1.17-5.414,1.76-12.025,6.33-15.666,10.92-8.713,30.34-10.427,43.65-9.394a75.178,75.178,0,0,1,26.24,6.893Z" fill="#fbbebe"></path>
<path id="Path_16310" data-name="Path 16310" d="M846.054,734.638c-3.9,5.026-7.815,10.158-10.329,16.018-4.806,11.179-4.1,23.838-3.3,35.981.223,3.522.505,7.116,2.35,10.04a16.961,16.961,0,0,0,6.134,5.225c10.176,5.778,22.092,7.5,33.725,8.8q26.723,2.96,53.632,3.6c44.443,1.08,89.566-2.548,132.856,7.516-5.36-8.138-5.34-18.907-2.35-28.184s8.77-17.356,14.42-25.306c-19.81-6.271-41.06,3.523-61.81,2.548-21.3-1-41.023-13.3-62.352-13.293-4.583,0-9.248.576-13.7-.528s-8.767-4.463-9.178-9.031c5.688,1.28,11.081-3.581,13.432-8.912s2.773-11.356,5.053-16.723c5.675-13.351,21.01-19.54,30.552-30.531,1.5-1.738,2.926-3.793,2.879-6.1a9.53,9.53,0,0,0-2.35-5.249c-7.932-10.569-19.883-16.44-29.812-24.66-3.455-2.866-10.424-13.669-14.3-14.668-7.192-1.843-13.291,8.538-17.968,13.6Q878.216,693.244,846.054,734.638Z" fill="#464353"></path>
<path id="Path_16311" data-name="Path 16311" d="M1082.34,731.656a39,39,0,0,1,7.87,7.786,13.58,13.58,0,0,1,2.33,4.992,13.444,13.444,0,0,1,.12,5.506,15.679,15.679,0,0,1,9.79-16.24Z" opacity="0.07"></path>
<g id="Group_446" data-name="Group 446" opacity="0.1">
<path id="Path_16312" data-name="Path 16312" d="M1147.52,423.708a102.661,102.661,0,0,0-4.78-10.745,29.044,29.044,0,0,0-3.43.881,96.971,96.971,0,0,1,5.44,10.369A19.848,19.848,0,0,1,1147.52,423.708Z" opacity="0.1"></path>
<path id="Path_16313" data-name="Path 16313" d="M1215.7,470.01c.31.258.62.552.92.822a1.757,1.757,0,0,0-.08-.223C1216.28,470.413,1215.99,470.213,1215.7,470.01Z" opacity="0.1"></path>
<path id="Path_16314" data-name="Path 16314" d="M1106.46,475.177c.61-.482,1.17-.987,1.83-1.456l-.19-5.578-12.55-.129c-2.03,1.867-4.19,4.544-2.99,7.045Z" opacity="0.1"></path>
<path id="Path_16315" data-name="Path 16315" d="M1243.66,569.075c-2.23,4.157-5.45,8.056-9.86,9.735-3.39,1.292-7.13,1.174-10.76,1.01-12.39-.505-24.98-1.057-36.69-5.155-5.47-1.926-10.71-4.615-16.45-5.8-6.71-1.386-13.65-.6-20.46.2l-29.99,3.523c-8.84,1.034-18.7,1.809-25.77-3.617-4.04-3.1-6.65-7.926-11.08-10.416-1.87-1.057-4.09-1.738-5.3-3.523a8.765,8.765,0,0,1-1.17-4.356c-.1-1.233-.16-2.466-.2-3.7a98.749,98.749,0,0,0,.2,10.744,8.766,8.766,0,0,0,1.17,4.357c1.18,1.773,3.43,2.454,5.3,3.523,4.43,2.49,7.05,7.316,11.08,10.416,7.05,5.425,16.93,4.7,25.77,3.617l29.99-3.523c6.81-.8,13.75-1.585,20.46-.2,5.69,1.175,10.93,3.876,16.45,5.8,11.75,4.1,24.3,4.7,36.69,5.156,3.63.152,7.37.281,10.76-1.01,4.41-1.68,7.63-5.578,9.86-9.735,4.33-8.044,5.54-17.169,5.08-26.363a45.844,45.844,0,0,1-5.08,19.317Z" opacity="0.1"></path>
</g>
<path id="Path_16316" data-name="Path 16316" d="M1147.17,431.258l16.46,15.266S1149.53,440.652,1147.17,431.258Z" opacity="0.1"></path>
</g>
</g>
<circle id="Ellipse_1475" data-name="Ellipse 1475" cx="97" cy="97" r="97" transform="translate(775 96)" fill="#004452"></circle>
</g>
</g>
</svg>