<svg xmlns="http://www.w3.org/2000/svg" xmlns:xlink="http://www.w3.org/1999/xlink" width="1500" height="1500" viewBox="0 0 1500 1500">
<defs>
<clipPath id="clip-undraw_knowledge_re_5v9l">
<rect width="1500" height="1500" id="id_101"></rect>
</clipPath>
</defs>
<g id="undraw_knowledge_re_5v9l" clip-path="url(#clip-undraw_knowledge_re_5v9l)">
<rect width="1500" height="1500" fill="#fff" id="id_102"></rect>
<g id="undraw_knowledge_re_5v9l-2" data-name="undraw_knowledge_re_5v9l">
<g id="undraw_knowledge_re_5v9l-3" data-name="undraw_knowledge_re_5v9l">
<rect id="Rectangle_2204" data-name="Rectangle 2204" width="1500" height="1500" fill="#fff" opacity="0"></rect>
<path id="Path_16317" data-name="Path 16317" d="M1210.91,1044.31h-787a26.473,26.473,0,0,1-26.45-26.43V377.559a26.47,26.47,0,0,1,26.45-26.428h787a26.472,26.472,0,0,1,26.45,26.428V1017.88a26.475,26.475,0,0,1-26.45,26.43Z" fill="#e6e6e6"></path>
<path id="Path_16318" data-name="Path 16318" d="M1134.44,1026.48H441.756a26.472,26.472,0,0,1-26.449-26.43V395.4a26.469,26.469,0,0,1,26.449-26.428H1193.07a26.472,26.472,0,0,1,26.45,26.428v546.07a85.143,85.143,0,0,1-85.08,85.011Z" fill="#fff"></path>
<path id="Path_16319" data-name="Path 16319" d="M944.093,505.692H627.781a6.815,6.815,0,1,1,0-13.631H944.093a6.815,6.815,0,1,1,0,13.631Z" fill="#00333d"></path>
<path id="Path_16320" data-name="Path 16320" d="M1104.22,578.415H627.781a6.816,6.816,0,1,1,0-13.632H1104.22a6.816,6.816,0,1,1,0,13.632Z" fill="#e6e6e6"></path>
<path id="Path_16321" data-name="Path 16321" d="M1104.22,651.136H627.781a6.816,6.816,0,1,1,0-13.632H1104.22a6.816,6.816,0,1,1,0,13.632Z" fill="#e6e6e6"></path>
<path id="Path_16322" data-name="Path 16322" d="M1104.22,723.858H627.781a6.815,6.815,0,1,1,0-13.631H1104.22a6.815,6.815,0,1,1,0,13.631Z" fill="#e6e6e6"></path>
<path id="Path_16323" data-name="Path 16323" d="M1104.22,796.579H627.781a6.816,6.816,0,1,1,0-13.632H1104.22a6.816,6.816,0,1,1,0,13.632Z" fill="#e6e6e6"></path>
<path id="Path_16324" data-name="Path 16324" d="M1082.79,912.465a34.513,34.513,0,1,1,34.54-34.513A34.53,34.53,0,0,1,1082.79,912.465Z" fill="#003742"></path>
<path id="Path_16325" data-name="Path 16325" d="M1102.22,876.313l-9.79-14.281a2.9,2.9,0,0,0-4.8,3.267l.01.013,6.33,9.236h-24.81a3.4,3.4,0,0,0-.02,6.809h25.14l-6.64,9.691a2.9,2.9,0,0,0,4.79,3.28l9.79-14.282a3.817,3.817,0,0,0,0-3.733Z" fill="#fff"></path>
<path id="Path_16326" data-name="Path 16326" d="M1269.56,256.7h-904.3a3.509,3.509,0,0,1,0-7.016h904.3a3.509,3.509,0,0,1,0,7.016Z" fill="#cacaca"></path>
<path id="Path_16327" data-name="Path 16327" d="M478.43,948.327a12.329,12.329,0,0,0,.008-18.913l-7.489-64.658-23.777,5.5,13.214,61.29a12.407,12.407,0,0,0,18.044,16.78Z" fill="#ffb6b6"></path>
<path id="Path_16328" data-name="Path 16328" d="M475.973,875.3l-27.528,17.16s-1.675,10.057-3.568-15.218c-.2-2.638,1.644-7.234,1.442-9.942-.229-3.055-8.986-4.445-9.216-7.536-.165-2.2,2.367-4.157,2.2-6.351-.247-3.324-.493-6.63-.735-9.882-.2-2.72-3.218-4.445-3.412-7.071-.2-2.647,2.429-6.2,2.244-8.7-1.387-18.815,3.411-66.151,3.411-67.114a13.735,13.735,0,0,0-2.925-6.587l1.469-4.391-.971-8.238a50.268,50.268,0,0,1,6.49-31.2l6.991-4.574,32.258,54.215c-13.575,46.914-22.436,65.341-8.153,115.428Z" fill="#003a45"></path>
<path id="Path_16329" data-name="Path 16329" d="M454.493,1279.53h16.652l7.925-64.18H454.493Z" fill="#ffb6b6"></path>
<path id="Path_16330" data-name="Path 16330" d="M449.059,1268.14l26.6-1.59v11.39l25.293,17.45a7.114,7.114,0,0,1-4.046,12.97H465.237l-5.459-11.26-2.132,11.26H445.7l3.355-40.22Z" fill="#2f2e41"></path>
<path id="Path_16331" data-name="Path 16331" d="M548.032,1279.53h16.652l7.924-64.18H548.032Z" fill="#ffb6b6"></path>
<path id="Path_16332" data-name="Path 16332" d="M542.6,1268.14l26.6-1.59v11.39l25.293,17.45a7.114,7.114,0,0,1-4.046,12.97H558.775l-5.459-11.26-2.132,11.26H539.242l3.355-40.22Z" fill="#2f2e41"></path>
<path id="Path_16333" data-name="Path 16333" d="M447.425,1224.19h.065l3.2-152.85a27.255,27.255,0,0,1,.359-25.78l.458-.83-1.189-5.51a35.055,35.055,0,0,1,2.006-21.11l2.988-97.34c-10.674-69.12,40.194-114.2,40.194-114.2h76.2l16.36,56.163c10.815,105.284,8.852,256.375-8.309,355.765l.467.24a3.951,3.951,0,0,1,1.615,5.21c-.793,2.29-2.8,3.68-4.486,3.1l-40.243-1.4a3.938,3.938,0,0,1-1.614-5.2c.793-2.3,2.8-3.69,4.486-3.11l2.736,1.38-2.823-5.74a21.406,21.406,0,0,1,1.745-21.82l-.5-12.64a19.254,19.254,0,0,1-3.77-18.15l2.715-8.85-3.207-81.98.647-18.4-1.334-20.86-6.168-93.86-23.349,115.42-23.849,173.51a4.363,4.363,0,0,1,1.341,4.18,4.535,4.535,0,0,1-4.493,3.45H447.309a4.407,4.407,0,0,1-4.247-5.58,4.455,4.455,0,0,1,4.363-3.21Z" fill="#2f2e41"></path>
<path id="Path_16334" data-name="Path 16334" d="M632.6,923.2a12.335,12.335,0,0,0-3.589-18.571l-19.647-62.058-22.3,9.916L611.7,910.154A12.409,12.409,0,0,0,632.6,923.2Z" fill="#ffb6b6"></path>
<path id="Path_16335" data-name="Path 16335" d="M551.755,725.914s22.408,79.237,21.393,87.242c-2.093,16.506-105.065,67.245-112.723,44.665l.96-7.421c-3.869-7.732,19.734-38.415,20.88-42.429,1.456-5.132-5.136-21.983-5.136-21.983s4.557-15.382,3.829-24.9-2.939-8.054-11-13.927S448.7,714.2,448.7,714.2s5.864-26.373,5.864-31.505,24.089-13.874,27.014-16.8a27.46,27.46,0,0,0,3.2-5.482c.593-1.185.215-3.933.849-5.293.4-.889,1.82-.337,2.238-1.253.4-.889.054-1.912.458-2.788.526-1.158,1.793-2.169,2.291-3.26,2.292-5.01,4.247-9.091,4.853-9.091,1.456,0,48.394,6.6,48.394,6.6a70.3,70.3,0,0,0,8.789,10.991c5.136,5.118,29.17,17.577,29.17,17.577l-30.06,52.019Z" fill="#013e4a"></path>
<path id="Path_16336" data-name="Path 16336" d="M615.135,859.218c-3.667,3.664-21.81,20.485-22.552,16.081-.727-4.391-1.124-4.916-4.062-6.371s-2.939-2.2-3.667-7.327-7.333-10.264-6.592-12.46.049.6.049-1.611-2.2-10.25-5.136-11.719-7.333-2.923-5.123-6.586S547.36,715.65,547.36,715.65l20.531-40.287,13.924-1.468s4.232,2.419,5.557,24.229c.068,1.1,1.273,3.132,1.324,4.338.043,1-1.066,1.168-1.035,2.244.006.229.012.461.018.694.028,1.069,2.918,1.856,2.961,2.888.077,1.844,1.212,13.6,1.335,15.331q.207,2.922.488,5.63c2.026,19.655,2.752,21.315,4.007,27.588,1.944,9.71,10,66.421,10,66.421s5.864,1.454,5.864,6.586,6.468,15.447,3.542,21.306,2.926,4.4-.741,8.068Z" fill="#013b47"></path>
<path id="Path_16337" data-name="Path 16337" d="M515.339,637.223a34.749,34.749,0,1,0-34.776-34.749A34.763,34.763,0,0,0,515.339,637.223Z" fill="#ffb8b8"></path>
<path id="Path_16338" data-name="Path 16338" d="M440.4,675.5q-11.039-3.909-22.077-7.833a22.22,22.22,0,0,1,4.779-5.621c7.007-5.846,16.678-6.9,25.574-8.874s18.581-6.016,21.838-14.524c3.384-8.847-1.522-18.4-4.37-27.414a55.194,55.194,0,0,1,1.438-38.683,43.078,43.078,0,0,1,29.084-24.708c12.886-2.86,27.449,1.8,35.372,12.34a21.815,21.815,0,0,1,26.251,12.143,15.769,15.769,0,0,1-.846,14.341c-2.749,4.155-8.628,6.282-13.055,3.972l2.566-6.508c-7.937,2.69-13.1,17.031-12.026,25.343,1.058,8.3,5.907,15.566,10.828,22.342s10.165,13.622,12.279,21.722c3.045,11.65-1.071,24.384-8.684,33.724s-18.342,15.679-29.451,20.342a136.558,136.558,0,0,1-25.8,7.945c1.579-3.071,3.144-6.142,4.723-9.213l-18.736,11.326c-3.623.352-7.275.564-10.926.634-10.63.183-21.472-.93-31.2-5.17s-18.3-11.96-21.824-21.976a28.454,28.454,0,0,1-1.579-10.086q12.921-2.789,25.841-5.564Z" fill="#2f2e41"></path>
<path id="Path_16339" data-name="Path 16339" d="M776.466,1311.01h-64.5l-.277-.5c-.824-1.5-1.621-3.08-2.365-4.71-6.643-14.21-9.451-30.47-11.929-44.81l-1.866-10.81a6.681,6.681,0,0,1,10.515-6.53q14.7,10.7,29.417,21.36c3.714,2.7,7.956,5.83,12.019,9.21.392-1.9.8-3.81,1.212-5.69a6.685,6.685,0,0,1,12.207-2.11l7.546,12.11c5.5,8.85,10.362,17.57,9.372,26.97a1.442,1.442,0,0,1-.026.34,21.265,21.265,0,0,1-1.095,4.53l-.231.64Z" fill="#f0f0f0"></path>
<path id="Path_16340" data-name="Path 16340" d="M841.2,1312.4l-612.9.6a2.31,2.31,0,0,1,0-4.62l612.9-.6a2.31,2.31,0,0,1,0,4.62Z" fill="#cacaca"></path>
<path id="Path_16341" data-name="Path 16341" d="M400.693,220.577a16.792,16.792,0,1,0-16.435-16.788A16.615,16.615,0,0,0,400.693,220.577Z" fill="#3f3d56"></path>
<path id="Path_16342" data-name="Path 16342" d="M457.471,220.577a16.792,16.792,0,1,0-16.436-16.788A16.614,16.614,0,0,0,457.471,220.577Z" fill="#3f3d56"></path>
<path id="Path_16343" data-name="Path 16343" d="M514.248,220.577a16.792,16.792,0,1,0-16.436-16.788A16.614,16.614,0,0,0,514.248,220.577Z" fill="#3f3d56"></path>
<path id="Path_16344" data-name="Path 16344" d="M578.989,217.057a1.935,1.935,0,0,1-1.389-.584l-11.09-11.328a1.941,1.941,0,0,1,0-2.716L577.6,191.1a1.942,1.942,0,1,1,2.778,2.715l-9.76,9.969,9.76,9.97a1.942,1.942,0,0,1-1.389,3.3Z" fill="#3f3d56"></path>
<path id="Path_16345" data-name="Path 16345" d="M597.624,217.058a1.942,1.942,0,0,1-1.389-3.3l9.759-9.969-9.759-9.969a1.943,1.943,0,0,1,2.778-2.716L610.1,202.431a1.941,1.941,0,0,1,0,2.716l-11.089,11.327a1.935,1.935,0,0,1-1.389.584Z" fill="#3f3d56"></path>
<path id="Path_16346" data-name="Path 16346" d="M1177.78,188.943h-20.62a4.258,4.258,0,0,0-4.26,4.253V213.82a4.258,4.258,0,0,0,4.26,4.253h20.62a4.275,4.275,0,0,0,4.28-4.253V193.2a4.275,4.275,0,0,0-4.28-4.253Z" fill="#3f3d56"></path>
<path id="Path_16347" data-name="Path 16347" d="M1127.25,188.943h-20.62a4.258,4.258,0,0,0-4.26,4.253V213.82a4.258,4.258,0,0,0,4.26,4.253h20.62a4.275,4.275,0,0,0,4.28-4.253V193.2a4.275,4.275,0,0,0-4.28-4.253Z" fill="#3f3d56"></path>
<path id="Path_16348" data-name="Path 16348" d="M1225.4,189.914h-20.62a4.251,4.251,0,0,0-4.26,4.253v20.624a4.251,4.251,0,0,0,4.26,4.253h20.62a4.266,4.266,0,0,0,4.27-4.253V194.167a4.266,4.266,0,0,0-4.27-4.253Z" fill="#3f3d56"></path>
<path id="Path_16349" data-name="Path 16349" d="M914.588,197.76H749.758a5.185,5.185,0,1,0,0,10.37h164.83a5.185,5.185,0,1,0,0-10.37Z" fill="#3f3d56"></path>
</g>
<rect id="Rectangle_2246" data-name="Rectangle 2246" width="12" height="587" transform="translate(196 698)" fill="#e6e6e6"></rect>
<path id="Path_16608" data-name="Path 16608" d="M8558.037-15410.83h30.114l45.781,125.658h-121.87Z" transform="translate(-8370.998 15983.172)" fill="#e6e6e6"></path>
</g>
</g>
</svg>