<svg width="1500" height="1500" viewBox="0 0 1500 1500" fill="none" xmlns="http://www.w3.org/2000/svg">
<path d="M1314.36 1284.73H185.636C185.202 1284.73 184.786 1284.55 184.479 1284.25C184.172 1283.94 184 1283.52 184 1283.09C184 1282.66 184.172 1282.24 184.479 1281.93C184.786 1281.63 185.202 1281.45 185.636 1281.45H1314.36C1314.8 1281.45 1315.21 1281.63 1315.52 1281.93C1315.83 1282.24 1316 1282.66 1316 1283.09C1316 1283.52 1315.83 1283.94 1315.52 1284.25C1315.21 1284.55 1314.8 1284.73 1314.36 1284.73Z" fill="#CCCCCC" id="id_101"></path>
<path d="M1202.64 999.335H538.492C535.672 999.335 532.968 1000.46 530.974 1002.45C528.98 1004.45 527.859 1007.15 527.859 1009.97C527.859 1012.79 528.98 1015.5 530.974 1017.49C532.968 1019.49 535.672 1020.61 538.492 1020.61H557.304V1275.07C557.304 1277.89 558.425 1280.6 560.419 1282.59C562.413 1284.58 565.117 1285.71 567.937 1285.71C570.757 1285.71 573.462 1284.58 575.456 1282.59C577.45 1280.6 578.57 1277.89 578.57 1275.07L578.732 1020.61H1160.93V1275.07C1160.93 1277.89 1162.05 1280.6 1164.04 1282.59C1166.04 1284.58 1168.74 1285.71 1171.56 1285.71C1174.38 1285.71 1177.09 1284.58 1179.08 1282.59C1181.07 1280.6 1182.19 1277.89 1182.19 1275.07V1026.22L1185.29 1020.61H1202.64C1205.46 1020.61 1208.17 1019.49 1210.16 1017.49C1212.16 1015.5 1213.28 1012.79 1213.28 1009.97C1213.28 1007.15 1212.16 1004.45 1210.16 1002.45C1208.17 1000.46 1205.46 999.335 1202.64 999.335V999.335Z" fill="#CCCCCC" id="id_102"></path>
<path d="M906.703 1004.9H705.525C701.629 1004.9 697.895 1003.35 695.14 1000.59C692.386 997.837 690.836 994.101 690.832 990.204V879.404C690.836 875.508 692.386 871.772 695.14 869.016C697.895 866.261 701.629 864.711 705.525 864.707H906.703C910.599 864.711 914.333 866.261 917.088 869.016C919.842 871.772 921.392 875.508 921.396 879.404V990.204C921.392 994.101 919.842 997.837 917.088 1000.59C914.333 1003.35 910.599 1004.9 906.703 1004.9V1004.9Z" fill="#3F3D56" id="id_103"></path>
<path d="M906.703 876.019H705.527C704.629 876.02 703.769 876.378 703.134 877.013C702.5 877.648 702.142 878.508 702.141 879.406V990.207C702.142 991.105 702.5 991.965 703.134 992.6C703.769 993.235 704.629 993.592 705.527 993.594H906.703C907.6 993.592 908.46 993.235 909.095 992.6C909.729 991.965 910.087 991.105 910.089 990.207V879.406C910.087 878.508 909.729 877.648 909.095 877.013C908.46 876.378 907.6 876.02 906.703 876.019V876.019Z" fill="white" id="id_104"></path>
<path d="M823.273 954.464C823.273 954.464 799.189 948.913 785.944 959.09C772.698 969.268 802.802 992.399 802.802 992.399L823.273 954.464Z" fill="#FFB8B8" id="id_105"></path>
<path d="M807.293 943.976C819.839 943.976 830.01 933.801 830.01 921.251C830.01 908.7 819.839 898.526 807.293 898.526C794.747 898.526 784.576 908.7 784.576 921.251C784.576 933.801 794.747 943.976 807.293 943.976Z" fill="#FFB8B8" id="id_106"></path>
<path d="M789.727 889.351C791.242 886.779 793.438 884.675 796.073 883.273C798.707 881.871 801.678 881.224 804.657 881.405C807.773 881.796 810.813 882.647 813.679 883.931L828.53 889.726C832.373 891.226 836.581 893.062 838.249 896.836C839.796 900.339 838.642 904.384 837.473 908.031L831.917 925.366C831.301 921.443 830.245 917.602 828.768 913.915C827.267 910.204 824.555 907.111 821.072 905.138C817.215 903.158 812.668 903.199 808.338 903.408C802.205 903.703 795.537 904.483 791.179 908.811C788.866 911.268 787.298 914.332 786.657 917.646C786.026 920.942 785.708 924.291 785.708 927.647C783.193 923.323 781.075 918.779 779.379 914.073C777.984 910.568 777.189 906.853 777.027 903.084C776.881 899.283 778.142 895.562 780.568 892.633C781.799 891.201 783.406 890.142 785.207 889.575C787.008 889.009 788.931 888.956 790.76 889.424L789.727 889.351Z" fill="#954C4C" id="id_107"></path>
<path d="M861.536 974.17C861.322 973.403 860.887 972.715 860.285 972.194C859.683 971.673 858.94 971.341 858.15 971.241C858.097 971.205 858.043 971.172 857.986 971.143L824.073 952.131C823.104 951.588 821.964 951.439 820.889 951.716C819.814 951.993 818.887 952.674 818.301 953.617L809.026 968.639L795.056 954.664L794.834 954.442C794.117 953.725 793.17 953.283 792.16 953.195C791.15 953.107 790.141 953.377 789.311 953.959L761.439 973.483C761.39 973.483 761.341 973.499 761.292 973.499C759.958 973.722 758.74 974.393 757.839 975.401C756.937 976.41 756.407 977.696 756.335 979.047L755.615 993.594H866.918L861.536 974.17Z" fill="#003742" id="id_108"></path>
<path d="M923.656 991.334H902.182C902.182 990.735 901.944 990.16 901.52 989.736C901.096 989.311 900.521 989.073 899.922 989.073H893.141C892.541 989.073 891.966 989.311 891.542 989.736C891.118 990.16 890.88 990.735 890.88 991.334H884.099C884.099 990.735 883.861 990.16 883.437 989.736C883.013 989.311 882.438 989.073 881.838 989.073H875.057C874.458 989.073 873.883 989.311 873.459 989.736C873.035 990.16 872.797 990.735 872.797 991.334H866.015C866.015 990.735 865.777 990.16 865.353 989.736C864.929 989.311 864.354 989.073 863.755 989.073H856.974C856.374 989.073 855.799 989.311 855.375 989.736C854.951 990.16 854.713 990.735 854.713 991.334H847.932C847.932 990.735 847.694 990.16 847.27 989.736C846.846 989.311 846.271 989.073 845.672 989.073H838.89C838.291 989.073 837.716 989.311 837.292 989.736C836.868 990.16 836.63 990.735 836.63 991.334H829.849C829.849 990.735 829.61 990.16 829.186 989.736C828.763 989.311 828.188 989.073 827.588 989.073H820.807C820.207 989.073 819.632 989.311 819.208 989.736C818.785 990.16 818.546 990.735 818.546 991.334H811.765C811.765 990.735 811.527 990.16 811.103 989.736C810.679 989.311 810.104 989.073 809.505 989.073H802.723C802.124 989.073 801.549 989.311 801.125 989.736C800.701 990.16 800.463 990.735 800.463 991.334H793.682C793.682 990.735 793.443 990.16 793.02 989.736C792.596 989.311 792.021 989.073 791.421 989.073H784.64C784.04 989.073 783.465 989.311 783.042 989.736C782.618 990.16 782.379 990.735 782.379 991.334H775.598C775.598 990.735 775.36 990.16 774.936 989.736C774.512 989.311 773.937 989.073 773.338 989.073H766.556C765.957 989.073 765.382 989.311 764.958 989.736C764.534 990.16 764.296 990.735 764.296 991.334H757.515C757.515 990.735 757.277 990.16 756.853 989.736C756.429 989.311 755.854 989.073 755.254 989.073H748.473C747.873 989.073 747.299 989.311 746.875 989.736C746.451 990.16 746.213 990.735 746.213 991.334H739.431C739.431 990.735 739.193 990.16 738.769 989.736C738.345 989.311 737.77 989.073 737.171 989.073H730.39C729.79 989.073 729.215 989.311 728.791 989.736C728.367 990.16 728.129 990.735 728.129 991.334H721.348C721.348 990.735 721.11 990.16 720.686 989.736C720.262 989.311 719.687 989.073 719.087 989.073H712.306C711.707 989.073 711.132 989.311 710.708 989.736C710.284 990.16 710.046 990.735 710.046 991.334H688.572C686.775 991.337 685.053 992.053 683.783 993.325C682.514 994.597 681.801 996.321 681.801 998.118C681.801 999.915 682.514 1001.64 683.783 1002.91C685.053 1004.18 686.775 1004.9 688.572 1004.9H923.656C925.455 1004.9 927.18 1004.19 928.452 1002.91C929.723 1001.64 930.438 999.917 930.438 998.118C930.438 996.319 929.723 994.594 928.452 993.321C927.18 992.049 925.455 991.334 923.656 991.334V991.334Z" fill="#3F3D56" id="id_109"></path>
<path d="M653.614 951.94V996.983H540.803C537.781 997.088 534.768 996.584 531.945 995.499C529.121 994.415 526.545 992.773 524.37 990.671C522.194 988.569 520.464 986.051 519.283 983.266C518.101 980.481 517.492 977.487 517.492 974.462C517.492 971.436 518.101 968.442 519.283 965.657C520.464 962.872 522.194 960.354 524.37 958.252C526.545 956.15 529.121 954.508 531.945 953.424C534.768 952.339 537.781 951.835 540.803 951.94H653.614Z" fill="#F2F2F2" id="id_110"></path>
<path d="M656.386 996.636C656.386 997.096 656.203 997.537 655.878 997.861C655.554 998.186 655.113 998.369 654.654 998.369H538.794C532.502 998.369 526.467 995.868 522.018 991.417C517.568 986.966 515.068 980.929 515.068 974.635C515.068 968.34 517.568 962.303 522.018 957.852C526.467 953.401 532.502 950.9 538.794 950.9H654.654C655.113 950.9 655.554 951.083 655.879 951.408C656.203 951.733 656.386 952.173 656.386 952.633C656.386 953.092 656.203 953.533 655.879 953.858C655.554 954.183 655.113 954.365 654.654 954.365H538.794C533.424 954.37 528.275 956.508 524.479 960.308C520.683 964.109 518.55 969.262 518.55 974.635C518.55 980.007 520.683 985.16 524.479 988.961C528.275 992.762 533.424 994.899 538.794 994.904H654.654C655.113 994.904 655.554 995.087 655.878 995.412C656.203 995.737 656.386 996.177 656.386 996.636V996.636Z" fill="#043a45" id="id_111"></path>
<path d="M653.614 962.335H532.386C532.34 962.335 532.295 962.326 532.253 962.309C532.21 962.292 532.172 962.266 532.139 962.234C532.107 962.202 532.081 962.163 532.064 962.121C532.046 962.079 532.037 962.034 532.037 961.988C532.037 961.942 532.046 961.897 532.064 961.855C532.081 961.813 532.107 961.774 532.139 961.742C532.172 961.71 532.21 961.685 532.253 961.667C532.295 961.65 532.34 961.641 532.386 961.642H653.614C653.706 961.642 653.793 961.679 653.857 961.744C653.922 961.809 653.958 961.897 653.958 961.988C653.958 962.08 653.922 962.167 653.857 962.232C653.793 962.297 653.706 962.334 653.614 962.335V962.335Z" fill="#CCCCCC" id="id_112"></path>
<path d="M653.614 970.65H532.386C532.34 970.65 532.295 970.642 532.253 970.624C532.21 970.607 532.172 970.582 532.139 970.549C532.107 970.517 532.081 970.479 532.064 970.437C532.046 970.394 532.037 970.349 532.037 970.304C532.037 970.258 532.046 970.213 532.064 970.17C532.081 970.128 532.107 970.09 532.139 970.058C532.172 970.025 532.21 970 532.253 969.983C532.295 969.965 532.34 969.957 532.386 969.957H653.614C653.706 969.958 653.793 969.994 653.857 970.059C653.922 970.124 653.958 970.212 653.958 970.304C653.958 970.395 653.922 970.483 653.857 970.548C653.793 970.613 653.706 970.649 653.614 970.65V970.65Z" fill="#CCCCCC" id="id_113"></path>
<path d="M653.614 978.965H532.386C532.34 978.966 532.295 978.957 532.253 978.94C532.21 978.922 532.172 978.897 532.139 978.865C532.107 978.833 532.081 978.794 532.064 978.752C532.046 978.71 532.037 978.665 532.037 978.619C532.037 978.573 532.046 978.528 532.064 978.486C532.081 978.444 532.107 978.405 532.139 978.373C532.172 978.341 532.21 978.315 532.253 978.298C532.295 978.281 532.34 978.272 532.386 978.272H653.614C653.706 978.273 653.793 978.31 653.857 978.375C653.922 978.44 653.958 978.527 653.958 978.619C653.958 978.71 653.922 978.798 653.857 978.863C653.793 978.928 653.706 978.965 653.614 978.965V978.965Z" fill="#CCCCCC" id="id_114"></path>
<path d="M653.614 987.281H532.386C532.34 987.282 532.295 987.273 532.253 987.256C532.21 987.238 532.172 987.213 532.139 987.181C532.107 987.149 532.081 987.11 532.064 987.068C532.046 987.026 532.037 986.981 532.037 986.935C532.037 986.889 532.046 986.844 532.064 986.802C532.081 986.76 532.107 986.721 532.139 986.689C532.172 986.657 532.21 986.631 532.253 986.614C532.295 986.597 532.34 986.588 532.386 986.588H653.614C653.706 986.589 653.793 986.626 653.857 986.691C653.922 986.756 653.958 986.843 653.958 986.935C653.958 987.026 653.922 987.114 653.857 987.179C653.793 987.244 653.706 987.281 653.614 987.281Z" fill="#CCCCCC" id="id_115"></path>
<path d="M632.348 904.484V949.528H519.537C516.515 949.633 513.502 949.128 510.679 948.044C507.856 946.959 505.28 945.317 503.104 943.215C500.929 941.114 499.199 938.595 498.017 935.811C496.836 933.026 496.227 930.031 496.227 927.006C496.227 923.981 496.836 920.986 498.017 918.201C499.199 915.416 500.929 912.898 503.104 910.796C505.28 908.695 507.856 907.053 510.679 905.968C513.502 904.884 516.515 904.379 519.537 904.484H632.348Z" fill="#F2F2F2" id="id_116"></path>
<path d="M635.12 949.181C635.12 949.64 634.938 950.081 634.613 950.406C634.288 950.731 633.848 950.913 633.388 950.913H517.529C514.413 950.913 511.328 950.299 508.449 949.107C505.571 947.914 502.955 946.166 500.752 943.962C498.549 941.758 496.801 939.141 495.609 936.262C494.416 933.382 493.803 930.296 493.803 927.179C493.803 924.062 494.416 920.976 495.609 918.096C496.801 915.217 498.549 912.6 500.752 910.396C502.955 908.193 505.571 906.444 508.449 905.251C511.328 904.059 514.413 903.445 517.529 903.445H633.388C633.848 903.445 634.288 903.627 634.613 903.952C634.938 904.277 635.12 904.718 635.12 905.177C635.12 905.637 634.938 906.077 634.613 906.402C634.288 906.727 633.848 906.91 633.388 906.91H517.529C512.158 906.914 507.009 909.052 503.213 912.853C499.417 916.654 497.285 921.806 497.285 927.179C497.285 932.552 499.417 937.705 503.213 941.505C507.009 945.306 512.158 947.444 517.529 947.449H633.388C633.848 947.449 634.288 947.631 634.613 947.956C634.937 948.281 635.12 948.722 635.12 949.181V949.181Z" fill="#3F3D56" id="id_117"></path>
<path d="M632.348 914.879H511.12C511.075 914.879 511.029 914.87 510.987 914.853C510.945 914.836 510.906 914.81 510.874 914.778C510.841 914.746 510.816 914.707 510.798 914.665C510.781 914.623 510.771 914.578 510.771 914.532C510.771 914.486 510.781 914.441 510.798 914.399C510.816 914.357 510.841 914.318 510.874 914.286C510.906 914.254 510.945 914.229 510.987 914.211C511.029 914.194 511.075 914.185 511.12 914.186H632.348C632.44 914.186 632.527 914.223 632.592 914.288C632.656 914.353 632.692 914.441 632.692 914.532C632.692 914.624 632.656 914.711 632.592 914.776C632.527 914.841 632.44 914.878 632.348 914.879V914.879Z" fill="#CCCCCC" id="id_118"></path>
<path d="M632.348 923.194H511.12C511.075 923.195 511.029 923.186 510.987 923.169C510.945 923.151 510.906 923.126 510.874 923.094C510.841 923.062 510.816 923.023 510.798 922.981C510.781 922.939 510.771 922.894 510.771 922.848C510.771 922.802 510.781 922.757 510.798 922.715C510.816 922.673 510.841 922.634 510.874 922.602C510.906 922.57 510.945 922.544 510.987 922.527C511.029 922.51 511.075 922.501 511.12 922.501H632.348C632.44 922.502 632.527 922.539 632.592 922.604C632.656 922.669 632.692 922.756 632.692 922.848C632.692 922.939 632.656 923.027 632.592 923.092C632.527 923.157 632.44 923.194 632.348 923.194V923.194Z" fill="#CCCCCC" id="id_119"></path>
<path d="M632.348 931.51H511.12C511.075 931.51 511.029 931.501 510.987 931.484C510.945 931.467 510.906 931.441 510.874 931.409C510.841 931.377 510.816 931.339 510.798 931.297C510.781 931.254 510.771 931.209 510.771 931.163C510.771 931.118 510.781 931.072 510.798 931.03C510.816 930.988 510.841 930.95 510.874 930.918C510.906 930.885 510.945 930.86 510.987 930.843C511.029 930.825 511.075 930.817 511.12 930.817H632.348C632.44 930.818 632.527 930.854 632.592 930.919C632.656 930.984 632.692 931.072 632.692 931.163C632.692 931.255 632.656 931.343 632.592 931.408C632.527 931.472 632.44 931.509 632.348 931.51V931.51Z" fill="#CCCCCC" id="id_120"></path>
<path d="M632.348 939.826H511.12C511.075 939.826 511.029 939.817 510.987 939.8C510.945 939.783 510.906 939.757 510.874 939.725C510.841 939.693 510.816 939.655 510.798 939.612C510.781 939.57 510.771 939.525 510.771 939.479C510.771 939.434 510.781 939.388 510.798 939.346C510.816 939.304 510.841 939.266 510.874 939.233C510.906 939.201 510.945 939.176 510.987 939.158C511.029 939.141 511.075 939.133 511.12 939.133H632.348C632.44 939.133 632.527 939.17 632.592 939.235C632.656 939.3 632.692 939.388 632.692 939.479C632.692 939.571 632.656 939.659 632.592 939.723C632.527 939.788 632.44 939.825 632.348 939.826Z" fill="#CCCCCC" id="id_121"></path>
<path d="M763.583 1157.09V1117.81C763.583 1116.08 762.893 1114.41 761.666 1113.19C760.439 1111.96 758.775 1111.27 757.039 1111.27H608.178C606.443 1111.27 604.778 1111.96 603.551 1113.19C602.324 1114.41 601.635 1116.08 601.635 1117.81V1157.09H763.583Z" fill="#CCCCCC" id="id_122"></path>
<path d="M763.583 1171.81H601.635V1222.54H763.583V1171.81Z" fill="#CCCCCC" id="id_123"></path>
<path d="M601.635 1237.27V1276.54C601.635 1278.28 602.324 1279.95 603.551 1281.17C604.778 1282.4 606.443 1283.09 608.178 1283.09H757.039C758.775 1283.09 760.439 1282.4 761.666 1281.17C762.893 1279.95 763.583 1278.28 763.583 1276.54V1237.27H601.635Z" fill="#CCCCCC" id="id_124"></path>
<path d="M681.79 1140.72C684.501 1140.72 686.698 1138.53 686.698 1135.81C686.698 1133.1 684.501 1130.9 681.79 1130.9C679.08 1130.9 676.883 1133.1 676.883 1135.81C676.883 1138.53 679.08 1140.72 681.79 1140.72Z" fill="white" id="id_125"></path>
<path d="M681.79 1206.18C684.501 1206.18 686.698 1203.98 686.698 1201.27C686.698 1198.56 684.501 1196.36 681.79 1196.36C679.08 1196.36 676.883 1198.56 676.883 1201.27C676.883 1203.98 679.08 1206.18 681.79 1206.18Z" fill="white" id="id_126"></path>
<path d="M682.054 1270.25C684.764 1270.25 686.962 1268.05 686.962 1265.34C686.962 1262.63 684.764 1260.43 682.054 1260.43C679.344 1260.43 677.146 1262.63 677.146 1265.34C677.146 1268.05 679.344 1270.25 682.054 1270.25Z" fill="white" id="id_127"></path>
<path d="M745.222 1066.49V1111.53H632.411C629.388 1111.64 626.375 1111.13 623.552 1110.05C620.729 1108.96 618.153 1107.32 615.977 1105.22C613.802 1103.12 612.072 1100.6 610.89 1097.81C609.709 1095.03 609.1 1092.04 609.1 1089.01C609.1 1085.98 609.709 1082.99 610.89 1080.21C612.072 1077.42 613.802 1074.9 615.977 1072.8C618.153 1070.7 620.729 1069.06 623.552 1067.97C626.375 1066.89 629.388 1066.38 632.411 1066.49H745.222Z" fill="#F2F2F2" id="id_128"></path>
<path d="M747.993 1111.18C747.993 1111.64 747.811 1112.08 747.486 1112.41C747.161 1112.73 746.721 1112.92 746.262 1112.92H630.402C627.285 1112.92 624.197 1112.31 621.316 1111.12C618.436 1109.92 615.818 1108.18 613.612 1105.97C611.407 1103.77 609.658 1101.15 608.464 1098.27C607.271 1095.39 606.656 1092.3 606.656 1089.18C606.656 1086.06 607.271 1082.98 608.464 1080.1C609.658 1077.21 611.407 1074.6 613.612 1072.39C615.818 1070.19 618.436 1068.44 621.316 1067.25C624.197 1066.06 627.285 1065.45 630.402 1065.45H746.262C746.721 1065.45 747.161 1065.63 747.486 1065.96C747.811 1066.28 747.993 1066.72 747.993 1067.18C747.993 1067.64 747.811 1068.08 747.486 1068.41C747.161 1068.73 746.721 1068.91 746.262 1068.91H630.402C625.031 1068.92 619.882 1071.06 616.086 1074.86C612.29 1078.66 610.158 1083.81 610.158 1089.18C610.158 1094.56 612.29 1099.71 616.086 1103.51C619.882 1107.31 625.031 1109.45 630.402 1109.45H746.262C746.721 1109.45 747.161 1109.64 747.486 1109.96C747.811 1110.28 747.993 1110.73 747.993 1111.18V1111.18Z" fill="#3F3D56" id="id_129"></path>
<path d="M745.221 1076.88H623.993C623.948 1076.88 623.902 1076.87 623.86 1076.86C623.818 1076.84 623.779 1076.81 623.747 1076.78C623.714 1076.75 623.689 1076.71 623.671 1076.67C623.654 1076.63 623.645 1076.58 623.645 1076.54C623.645 1076.49 623.654 1076.44 623.671 1076.4C623.689 1076.36 623.714 1076.32 623.747 1076.29C623.779 1076.26 623.818 1076.23 623.86 1076.22C623.902 1076.2 623.948 1076.19 623.993 1076.19H745.221C745.313 1076.19 745.4 1076.23 745.465 1076.29C745.529 1076.36 745.565 1076.44 745.565 1076.54C745.565 1076.63 745.529 1076.72 745.465 1076.78C745.4 1076.85 745.313 1076.88 745.221 1076.88V1076.88Z" fill="#CCCCCC" id="id_130"></path>
<path d="M745.221 1085.2H623.993C623.948 1085.2 623.902 1085.19 623.86 1085.17C623.818 1085.16 623.779 1085.13 623.747 1085.1C623.714 1085.07 623.689 1085.03 623.671 1084.98C623.654 1084.94 623.645 1084.9 623.645 1084.85C623.645 1084.81 623.654 1084.76 623.671 1084.72C623.689 1084.68 623.714 1084.64 623.747 1084.61C623.779 1084.57 623.818 1084.55 623.86 1084.53C623.902 1084.51 623.948 1084.51 623.993 1084.51H745.221C745.313 1084.51 745.4 1084.54 745.465 1084.61C745.529 1084.67 745.565 1084.76 745.565 1084.85C745.565 1084.94 745.529 1085.03 745.465 1085.1C745.4 1085.16 745.313 1085.2 745.221 1085.2V1085.2Z" fill="#CCCCCC" id="id_131"></path>
<path d="M745.221 1093.51H623.993C623.948 1093.51 623.902 1093.51 623.86 1093.49C623.818 1093.47 623.779 1093.45 623.747 1093.41C623.714 1093.38 623.689 1093.34 623.671 1093.3C623.654 1093.26 623.645 1093.21 623.645 1093.17C623.645 1093.12 623.654 1093.08 623.671 1093.03C623.689 1092.99 623.714 1092.95 623.747 1092.92C623.779 1092.89 623.818 1092.86 623.86 1092.85C623.902 1092.83 623.948 1092.82 623.993 1092.82H745.221C745.313 1092.82 745.4 1092.86 745.465 1092.92C745.529 1092.99 745.565 1093.08 745.565 1093.17C745.565 1093.26 745.529 1093.35 745.465 1093.41C745.4 1093.48 745.313 1093.51 745.221 1093.51V1093.51Z" fill="#CCCCCC" id="id_132"></path>
<path d="M745.221 1101.83H623.993C623.948 1101.83 623.902 1101.82 623.86 1101.8C623.818 1101.79 623.779 1101.76 623.747 1101.73C623.714 1101.7 623.689 1101.66 623.671 1101.62C623.654 1101.57 623.645 1101.53 623.645 1101.48C623.645 1101.44 623.654 1101.39 623.671 1101.35C623.689 1101.31 623.714 1101.27 623.747 1101.24C623.779 1101.21 623.818 1101.18 623.86 1101.16C623.902 1101.15 623.948 1101.14 623.993 1101.14H745.221C745.313 1101.14 745.4 1101.17 745.465 1101.24C745.529 1101.3 745.565 1101.39 745.565 1101.48C745.565 1101.57 745.529 1101.66 745.465 1101.73C745.4 1101.79 745.313 1101.83 745.221 1101.83V1101.83Z" fill="#CCCCCC" id="id_133"></path>
<path d="M593.141 772.497V485.308C593.144 482.045 594.442 478.916 596.748 476.609C599.055 474.302 602.182 473.004 605.444 473H832.382C835.644 473.004 838.771 474.302 841.078 476.609C843.385 478.917 844.682 482.045 844.686 485.308V772.497C844.682 775.76 843.385 778.889 841.078 781.196C838.771 783.503 835.644 784.801 832.382 784.805H605.444C602.182 784.801 599.055 783.503 596.748 781.196C594.442 778.889 593.144 775.76 593.141 772.497V772.497ZM605.444 475.735C602.907 475.738 600.475 476.747 598.681 478.542C596.887 480.337 595.878 482.77 595.875 485.308V772.497C595.878 775.035 596.887 777.468 598.681 779.263C600.475 781.058 602.907 782.067 605.444 782.07H832.382C834.919 782.067 837.352 781.058 839.146 779.263C840.94 777.468 841.949 775.035 841.952 772.497V485.308C841.949 482.77 840.94 480.337 839.146 478.542C837.352 476.747 834.919 475.738 832.382 475.735H605.444Z" fill="#E6E6E6" id="id_134"></path>
<path d="M731.639 604.891V545.922C731.64 544.29 732.289 542.726 733.442 541.572C734.596 540.418 736.16 539.769 737.791 539.768H787.744C789.375 539.769 790.939 540.418 792.092 541.572C793.246 542.726 793.894 544.29 793.896 545.922V604.891C793.894 606.522 793.246 608.086 792.092 609.24C790.939 610.394 789.375 611.043 787.744 611.045H737.791C736.16 611.043 734.596 610.394 733.442 609.24C732.289 608.086 731.64 606.522 731.639 604.891V604.891Z" fill="#003b47" id="id_135"></path>
<path d="M634.574 632.241V573.273C634.576 571.641 635.225 570.077 636.378 568.923C637.531 567.769 639.095 567.12 640.726 567.119H690.68C692.311 567.12 693.875 567.769 695.028 568.923C696.181 570.077 696.83 571.641 696.832 573.273V632.242C696.83 633.873 696.181 635.437 695.028 636.591C693.875 637.745 692.311 638.394 690.68 638.396H640.726C639.095 638.394 637.531 637.745 636.378 636.591C635.225 635.437 634.576 633.873 634.574 632.241V632.241Z" fill="#CCCCCC" id="id_136"></path>
<path d="M712.5 715.663V656.694C712.502 655.062 713.151 653.498 714.304 652.344C715.457 651.191 717.021 650.542 718.652 650.54H768.606C770.237 650.542 771.8 651.191 772.954 652.344C774.107 653.498 774.756 655.062 774.757 656.694V715.663C774.756 717.295 774.107 718.859 772.954 720.013C771.8 721.166 770.237 721.815 768.606 721.817H718.652C717.021 721.815 715.457 721.166 714.304 720.013C713.151 718.859 712.502 717.295 712.5 715.663V715.663Z" fill="#FF6584" id="id_137"></path>
<path d="M1011.02 985.265H959.621C959.133 985.264 958.652 985.376 958.214 985.592L945.242 992.089C944.815 992.27 944.451 992.573 944.195 992.96C943.939 993.347 943.803 993.801 943.803 994.265C943.803 994.729 943.939 995.183 944.195 995.57C944.451 995.957 944.815 996.26 945.242 996.441L958.214 1002.94C958.652 1003.15 959.133 1003.27 959.621 1003.27H1011.02C1011.73 1003.31 1012.42 1003.07 1012.96 1002.6C1013.49 1002.13 1013.82 1001.47 1013.87 1000.76V987.769C1013.82 987.061 1013.49 986.401 1012.96 985.932C1012.42 985.464 1011.73 985.224 1011.02 985.265Z" fill="#3F3D56" id="id_138"></path>
<path d="M1013.87 987.769V1000.76C1013.82 1001.47 1013.49 1002.13 1012.96 1002.6C1012.42 1003.07 1011.73 1003.31 1011.02 1003.27H1000.78V985.265H1011.02C1011.73 985.224 1012.42 985.464 1012.96 985.932C1013.49 986.401 1013.82 987.061 1013.87 987.769V987.769Z" fill="#033742" id="id_139"></path>
<path d="M1010.63 888.062C1012.96 887.057 1015.48 886.555 1018.01 886.59C1020.55 886.625 1023.05 887.195 1025.35 888.263C1027.64 889.331 1029.69 890.874 1031.36 892.789C1033.02 894.704 1034.26 896.949 1034.99 899.377C1035.22 900.147 1035.4 900.931 1035.52 901.725L1107.39 937.38L1124.02 926.353L1144.72 950.187L1119.32 970.822C1116.27 973.284 1112.5 974.696 1108.58 974.847C1104.66 974.998 1100.8 973.881 1097.56 971.662L1024.64 921.214C1024.1 921.444 1023.54 921.647 1022.98 921.82C1020.55 922.554 1018 922.767 1015.48 922.445C1012.97 922.123 1010.55 921.272 1008.38 919.95C1006.22 918.627 1004.36 916.862 1002.93 914.77C1001.49 912.678 1000.51 910.307 1000.06 907.811C999.926 907.087 999.837 906.355 999.795 905.619C999.592 901.935 1000.52 898.278 1002.46 895.14C1004.4 892.001 1007.25 889.531 1010.63 888.062V888.062Z" fill="#FFB8B8" id="id_140"></path>
<path d="M1160.34 1107.58H1081.8C1081.8 1109.84 1000.86 1111.67 1000.86 1111.67C999.588 1112.63 998.43 1113.73 997.407 1114.95C994.332 1118.62 992.652 1123.25 992.662 1128.04V1131.31C992.664 1136.74 994.819 1141.94 998.653 1145.77C1002.49 1149.61 1007.69 1151.76 1013.11 1151.77H1160.34C1165.76 1151.76 1170.96 1149.61 1174.79 1145.77C1178.62 1141.94 1180.78 1136.73 1180.78 1131.31V1128.04C1180.78 1122.62 1178.62 1117.42 1174.79 1113.58C1170.95 1109.75 1165.76 1107.59 1160.34 1107.58V1107.58Z" fill="#3F3D56" id="id_141"></path>
<path d="M1074.91 1288.41H1096.17V1150.95H1074.91V1288.41Z" fill="#3F3D56" id="id_142"></path>
<path d="M1014.38 1287.66C1014.38 1289.96 1046.61 1288.55 1086.36 1288.55C1126.11 1288.55 1158.33 1289.96 1158.33 1287.66C1158.33 1285.37 1126.11 1267.14 1086.36 1267.14C1046.61 1267.14 1014.38 1285.37 1014.38 1287.66Z" fill="#3F3D56" id="id_143"></path>
<path d="M1033.58 1271.55L1013.52 1271.55L1003.98 1219.52L1033.58 1219.52L1033.58 1271.55Z" fill="#FFB8B8" id="id_144"></path>
<path d="M1038.69 1291L974.027 1291V1290.18C974.027 1286.87 974.678 1283.6 975.943 1280.54C977.208 1277.49 979.062 1274.71 981.399 1272.38C983.737 1270.04 986.511 1268.18 989.565 1266.92C992.619 1265.65 995.892 1265 999.197 1265H999.199L1038.69 1265L1038.69 1291Z" fill="#954C4C" id="id_145"></path>
<path d="M1003.58 1239.29L963.601 1149.6C960.263 1142.04 959.894 1133.5 962.567 1125.68C965.24 1117.86 970.76 1111.34 978.026 1107.41L1064.75 1060.89L1104.32 1057.52L1140.82 1054.2L1141.09 1054.65C1141.42 1055.22 1149.27 1068.78 1143.97 1083.65C1139.94 1094.93 1129.48 1103.74 1112.86 1109.83C1074.06 1124.06 1029.25 1136.22 1011.78 1140.79C1011.01 1140.99 1010.29 1141.35 1009.67 1141.84C1009.04 1142.34 1008.53 1142.96 1008.17 1143.67C1007.8 1144.37 1007.58 1145.14 1007.53 1145.93C1007.47 1146.71 1007.58 1147.5 1007.84 1148.25L1044.99 1231.73C1045.38 1232.79 1045.52 1233.92 1045.4 1235.04C1045.28 1236.16 1044.9 1237.24 1044.3 1238.2C1043.7 1239.15 1042.89 1239.95 1041.92 1240.54C1040.96 1241.13 1039.88 1241.49 1038.76 1241.6L1011 1243.62C1010.77 1243.64 1010.53 1243.65 1010.3 1243.65C1008.88 1243.65 1007.49 1243.24 1006.29 1242.46C1005.1 1241.69 1004.16 1240.59 1003.58 1239.29V1239.29Z" fill="#BD4B74" id="id_146"></path>
<path d="M1043.39 1271.55L1023.34 1271.55L1013.8 1219.52L1043.4 1219.52L1043.39 1271.55Z" fill="#FFB8B8" id="id_147"></path>
<path d="M1048.51 1291L983.842 1291V1290.18C983.842 1286.87 984.493 1283.6 985.758 1280.54C987.023 1277.49 988.877 1274.71 991.214 1272.38C993.551 1270.04 996.326 1268.18 999.38 1266.92C1002.43 1265.65 1005.71 1265 1009.01 1265H1009.01L1048.51 1265L1048.51 1291Z" fill="#954C4C" id="id_148"></path>
<path d="M1015.03 1244.2L975.052 1154.51C971.714 1146.95 971.345 1138.41 974.018 1130.59C976.691 1122.77 982.211 1116.25 989.478 1112.32L1076.2 1065.8L1115.77 1062.43L1152.28 1059.11L1152.54 1059.56C1152.87 1060.12 1160.72 1073.69 1155.42 1088.56C1151.39 1099.83 1140.93 1108.64 1124.31 1114.74C1085.51 1128.97 1040.7 1141.13 1023.23 1145.7C1022.46 1145.9 1021.74 1146.25 1021.12 1146.75C1020.49 1147.25 1019.98 1147.87 1019.62 1148.58C1019.25 1149.28 1019.03 1150.05 1018.98 1150.83C1018.92 1151.62 1019.03 1152.41 1019.3 1153.16L1056.44 1236.64C1056.83 1237.7 1056.97 1238.83 1056.85 1239.95C1056.73 1241.07 1056.35 1242.15 1055.75 1243.11C1055.15 1244.06 1054.34 1244.86 1053.38 1245.45C1052.41 1246.04 1051.33 1246.4 1050.21 1246.51L1022.45 1248.53C1022.22 1248.55 1021.98 1248.56 1021.75 1248.56C1020.33 1248.56 1018.94 1248.15 1017.75 1247.37C1016.55 1246.6 1015.61 1245.5 1015.03 1244.2V1244.2Z" fill="#DA628D" id="id_149"></path>
<path d="M995.105 970.212C978.304 947.857 965.023 923.061 955.722 896.686C955.183 895.108 955.221 893.39 955.83 891.838C956.439 890.286 957.578 889 959.045 888.21L1016.54 857.394C1017.47 856.892 1018.5 856.608 1019.56 856.565C1020.61 856.522 1021.66 856.721 1022.63 857.146C1023.62 857.575 1024.49 858.223 1025.19 859.041C1025.89 859.858 1026.39 860.825 1026.66 861.866C1033.35 887.282 1045.93 910.765 1063.38 930.416C1064.09 931.216 1064.62 932.169 1064.91 933.203C1065.21 934.237 1065.26 935.325 1065.07 936.383C1064.89 937.425 1064.47 938.411 1063.85 939.267C1063.23 940.123 1062.43 940.826 1061.49 941.322L1004 972.138C1002.53 972.923 1000.83 973.16 999.2 972.807C997.571 972.454 996.12 971.535 995.105 970.212V970.212Z" fill="#CCCCCC" id="id_150"></path>
<path d="M999.029 967.263C999.339 967.649 999.773 967.915 1000.26 968.015C1000.74 968.115 1001.25 968.043 1001.68 967.811L1059.18 936.994C1059.45 936.849 1059.7 936.64 1059.88 936.386C1060.07 936.131 1060.19 935.837 1060.24 935.526C1060.3 935.198 1060.29 934.861 1060.19 934.541C1060.1 934.221 1059.94 933.926 1059.71 933.681C1041.75 913.451 1028.8 889.276 1021.91 863.111C1021.83 862.787 1021.68 862.487 1021.46 862.233C1021.25 861.979 1020.98 861.778 1020.67 861.646C1020.38 861.517 1020.07 861.457 1019.75 861.47C1019.44 861.483 1019.13 861.569 1018.86 861.721L961.364 892.537C960.929 892.772 960.589 893.153 960.404 893.612C960.219 894.071 960.2 894.581 960.351 895.052C969.485 920.956 982.529 945.308 999.029 967.263V967.263Z" fill="white" id="id_151"></path>
<path d="M1186.1 961.992L1141.08 979.107L1130.08 948.561C1128.62 944.505 1128.64 940.064 1130.14 936.021C1131.64 931.979 1134.52 928.596 1138.27 926.471V926.471C1142.06 924.321 1146.5 923.598 1150.77 924.434C1155.05 925.269 1158.89 927.608 1161.6 931.027L1186.1 961.992Z" fill="#00333d" id="id_152"></path>
<path d="M1071.58 1083.02C1070.63 1082.35 1069.84 1081.48 1069.25 1080.48C1068.66 1079.48 1068.29 1078.37 1068.17 1077.21C1062.4 1023.36 1066.42 981.214 1080.45 948.371C1082.92 942.706 1086.64 937.675 1091.33 933.656C1096.03 929.637 1101.57 926.735 1107.55 925.167L1143.94 923.329L1144.13 923.42C1152.35 927.444 1159.04 934.009 1163.23 942.141C1167.42 950.273 1168.88 959.539 1167.39 968.566C1155.69 999.434 1145.88 1031.57 1153.36 1057.5C1153.67 1058.58 1153.77 1059.72 1153.63 1060.84C1153.49 1061.96 1153.13 1063.04 1152.57 1064.02C1152.02 1064.96 1151.29 1065.78 1150.41 1066.43C1149.53 1067.08 1148.53 1067.55 1147.47 1067.8L1078.15 1084.29C1077.02 1084.56 1075.86 1084.58 1074.73 1084.36C1073.59 1084.15 1072.52 1083.69 1071.58 1083.02Z" fill="#00313b" id="id_153"></path>
<path d="M1131.8 909.73C1153.99 909.73 1171.98 891.736 1171.98 869.538C1171.98 847.341 1153.99 829.347 1131.8 829.347C1109.61 829.347 1091.62 847.341 1091.62 869.538C1091.62 891.736 1109.61 909.73 1131.8 909.73Z" fill="#FFB8B8" id="id_154"></path>
<path d="M1020.31 901.371L988.998 915.198C987.807 915.723 986.457 915.753 985.244 915.283C984.031 914.812 983.053 913.88 982.527 912.69L981.752 910.935C981.228 909.743 981.198 908.393 981.668 907.179C982.138 905.965 983.07 904.988 984.26 904.461L1015.57 890.634C1016.76 890.11 1018.11 890.08 1019.33 890.55C1020.54 891.02 1021.52 891.953 1022.04 893.143L1022.82 894.898C1023.34 896.089 1023.37 897.44 1022.9 898.653C1022.43 899.867 1021.5 900.845 1020.31 901.371V901.371Z" fill="#CCCCCC" id="id_155"></path>
<path d="M1031.76 922.645L1000.45 936.472C999.258 936.996 997.908 937.026 996.695 936.556C995.482 936.086 994.505 935.153 993.978 933.963L993.203 932.208C992.679 931.017 992.649 929.666 993.119 928.453C993.589 927.239 994.521 926.261 995.711 925.734L1027.02 911.908C1028.21 911.383 1029.56 911.353 1030.78 911.823C1031.99 912.294 1032.97 913.226 1033.5 914.416L1034.27 916.171C1034.79 917.363 1034.82 918.713 1034.35 919.927C1033.88 921.14 1032.95 922.118 1031.76 922.645V922.645Z" fill="#CCCCCC" id="id_156"></path>
<path d="M1055.91 1005.74L986.103 950.645C985.547 950.841 984.981 951.008 984.408 951.146C981.944 951.722 979.386 951.774 976.901 951.297C974.416 950.82 972.059 949.825 969.983 948.378C967.893 946.929 966.137 945.051 964.832 942.868C963.527 940.686 962.703 938.25 962.415 935.723C961.947 931.683 962.857 927.604 964.998 924.147C967.138 920.69 970.384 918.058 974.208 916.678C976.594 915.822 979.135 915.479 981.663 915.673C984.191 915.868 986.65 916.594 988.878 917.805C991.106 919.016 993.053 920.684 994.592 922.7C996.13 924.716 997.226 927.034 997.807 929.503C997.987 930.286 998.112 931.08 998.181 931.879L1067.67 971.983L1084.97 962.023L1104.12 987.113L1077.27 1006.26C1074.13 1008.48 1070.35 1009.63 1066.51 1009.54C1062.66 1009.44 1058.94 1008.11 1055.91 1005.74V1005.74Z" fill="#FFB8B8" id="id_157"></path>
<path d="M1112.64 994.926L1072.81 967.832L1091.53 941.311C1094.02 937.789 1097.67 935.26 1101.84 934.17C1106.01 933.08 1110.43 933.5 1114.32 935.354V935.354C1118.25 937.231 1121.39 940.453 1123.15 944.439C1124.92 948.425 1125.21 952.912 1123.96 957.09L1112.64 994.926Z" fill="#00333d" id="id_158"></path>
<path d="M1117.07 863.552C1106.74 870.623 1093.18 877.89 1082.63 870.361C1075.71 865.417 1073.53 856.263 1076.34 848.229C1081.39 833.782 1095.26 827.422 1108.53 822.546C1125.78 816.208 1144.56 811.166 1162.37 815.705C1180.17 820.244 1195.91 837.491 1192.7 855.589C1190.11 870.144 1176.39 882.254 1178.34 896.908C1180.3 911.655 1196.88 919.418 1211.51 922.054C1226.15 924.689 1242.53 925.536 1253.05 936.053C1266.47 949.47 1263.12 973.451 1250.49 987.616C1237.86 1001.78 1218.81 1008.2 1200.34 1012.57C1175.88 1018.35 1149.42 1021.39 1126.19 1011.79C1102.95 1002.19 1084.87 976.356 1091.6 952.129C1094.45 941.895 1101.14 933.246 1107.62 924.826C1114.09 916.406 1120.64 907.601 1123.11 897.271C1125.17 888.662 1123.65 878.667 1117.94 872.21C1116.9 871.079 1116.25 869.649 1116.07 868.124C1115.9 866.599 1116.21 865.058 1116.97 863.723L1117.07 863.552Z" fill="#954C4C" id="id_159"></path>
<path d="M362.424 1058.83C352.071 1062.47 340.955 1063.38 330.148 1061.48C319.34 1059.57 309.205 1054.92 300.718 1047.96C279.106 1029.81 272.329 999.914 266.816 972.232C261.38 944.939 255.944 917.646 250.508 890.354L284.65 913.871C309.204 930.783 334.31 948.238 351.311 972.734C368.312 997.231 375.732 1030.67 362.073 1057.18" fill="#E6E6E6" id="id_160"></path>
<path d="M359.506 1157.96C362.961 1132.78 366.515 1107.28 364.091 1081.83C361.938 1059.22 355.045 1037.15 341.011 1019.05C333.562 1009.46 324.498 1001.24 314.226 994.768C311.547 993.076 309.082 997.323 311.749 999.007C329.522 1010.24 343.269 1026.84 351.007 1046.39C359.554 1068.14 360.927 1091.84 359.454 1114.95C358.563 1128.92 356.676 1142.79 354.773 1156.66C354.623 1157.28 354.717 1157.94 355.035 1158.5C355.353 1159.06 355.872 1159.48 356.487 1159.67C357.115 1159.84 357.783 1159.76 358.348 1159.44C358.913 1159.12 359.329 1158.59 359.506 1157.96H359.506Z" fill="#F2F2F2" id="id_161"></path>
<path d="M326.221 1113.4C321.781 1120.15 315.677 1125.65 308.499 1129.35C301.32 1133.06 293.309 1134.85 285.235 1134.56C264.488 1133.58 247.191 1119.09 231.621 1105.34L185.566 1064.67L216.047 1063.21C237.966 1062.16 260.451 1061.18 281.329 1067.94C302.207 1074.7 321.461 1090.98 325.279 1112.59" fill="#E6E6E6" id="id_162"></path>
<path d="M369.272 1172.44C352.639 1142.99 333.347 1110.27 298.874 1099.82C289.289 1096.92 279.239 1095.88 269.264 1096.76C266.12 1097.03 266.905 1101.88 270.043 1101.61C286.763 1100.22 303.451 1104.63 317.297 1114.11C330.621 1123.18 340.994 1135.8 349.775 1149.17C355.153 1157.37 359.971 1165.91 364.789 1174.43C366.329 1177.16 370.83 1175.19 369.272 1172.44V1172.44Z" fill="#F2F2F2" id="id_163"></path>
<path d="M395.923 1203.42C395.362 1196.93 393.031 1190.71 389.182 1185.45C385.334 1180.19 380.116 1176.08 374.096 1173.58V1156.56H345.559V1174.12C339.836 1176.74 334.911 1180.84 331.285 1185.98C327.66 1191.13 325.464 1197.15 324.921 1203.42L318.211 1281.45H402.633L395.923 1203.42Z" fill="#F2F2F2" id="id_164"></path>
<ellipse cx="1102" cy="885.5" rx="4" ry="5.5" transform="rotate(-21.7991 1102 885.5)" fill="#3F3D56" id="id_165"></ellipse>
<path d="M804.5 414C794.908 414 785.531 411.156 777.555 405.826C769.579 400.497 763.363 392.922 759.692 384.06C756.021 375.198 755.061 365.446 756.932 356.038C758.803 346.63 763.422 337.988 770.205 331.205C776.988 324.422 785.63 319.803 795.038 317.932C804.446 316.061 814.198 317.021 823.06 320.692C831.922 324.363 839.497 330.579 844.826 338.555C850.156 346.531 853 355.908 853 365.5C852.985 378.359 847.871 390.686 838.779 399.779C829.686 408.871 817.359 413.985 804.5 414V414ZM804.5 319.31C795.364 319.31 786.434 322.019 778.838 327.094C771.242 332.17 765.322 339.383 761.826 347.824C758.33 356.264 757.415 365.551 759.197 374.511C760.979 383.471 765.379 391.702 771.838 398.162C778.298 404.621 786.529 409.021 795.489 410.803C804.449 412.585 813.736 411.67 822.176 408.174C830.617 404.678 837.831 398.758 842.906 391.162C847.981 383.566 850.69 374.636 850.69 365.5C850.677 353.254 845.806 341.513 837.146 332.854C828.487 324.194 816.746 319.323 804.5 319.31V319.31Z" fill="#CCCCCC" id="id_166"></path>
<path d="M990.5 458C980.908 458 971.531 455.185 963.555 449.911C955.579 444.636 949.363 437.14 945.692 428.369C942.021 419.598 941.061 409.947 942.932 400.636C944.803 391.325 949.422 382.772 956.205 376.059C962.988 369.346 971.63 364.774 981.038 362.922C990.446 361.07 1000.2 362.021 1009.06 365.654C1017.92 369.287 1025.5 375.439 1030.83 383.333C1036.16 391.226 1039 400.507 1039 410C1038.99 422.726 1033.87 434.927 1024.78 443.925C1015.69 452.924 1003.36 457.986 990.5 458V458ZM990.5 364.286C981.364 364.286 972.434 366.967 964.838 371.99C957.242 377.013 951.322 384.153 947.826 392.506C944.33 400.859 943.415 410.051 945.197 418.918C946.979 427.786 951.379 435.932 957.838 442.325C964.298 448.718 972.529 453.072 981.489 454.836C990.449 456.6 999.736 455.694 1008.18 452.234C1016.62 448.774 1023.83 442.915 1028.91 435.398C1033.98 427.88 1036.69 419.041 1036.69 410C1036.68 397.88 1031.81 386.26 1023.15 377.69C1014.49 369.12 1002.75 364.299 990.5 364.286V364.286Z" fill="#CCCCCC" id="id_167"></path>
<path d="M904.5 611C894.908 611 885.531 608.185 877.555 602.911C869.579 597.636 863.363 590.14 859.692 581.369C856.021 572.598 855.061 562.947 856.932 553.636C858.803 544.325 863.422 535.772 870.205 529.059C876.988 522.346 885.63 517.774 895.038 515.922C904.446 514.07 914.198 515.021 923.06 518.654C931.922 522.287 939.497 528.439 944.826 536.333C950.156 544.226 953 553.507 953 563C952.985 575.726 947.871 587.927 938.779 596.925C929.686 605.924 917.359 610.986 904.5 611V611ZM904.5 517.286C895.364 517.286 886.434 519.967 878.838 524.99C871.242 530.013 865.322 537.153 861.826 545.506C858.33 553.859 857.415 563.051 859.197 571.918C860.979 580.786 865.379 588.932 871.838 595.325C878.298 601.718 886.529 606.072 895.489 607.836C904.449 609.6 913.736 608.694 922.176 605.234C930.617 601.774 937.831 595.915 942.906 588.398C947.981 580.88 950.69 572.041 950.69 563C950.677 550.88 945.806 539.26 937.146 530.69C928.487 522.12 916.746 517.299 904.5 517.286V517.286Z" fill="#CCCCCC" id="id_168"></path>
<path d="M1018.3 397.023L1024 395.877C1024 395.877 1019.21 401.264 1018.3 401.608C1018.21 402.753 1018.21 403.902 1018.3 405.047C1007.36 452.271 967 431.41 967 431.41C981.706 431.754 982.96 425.679 982.96 425.679C974.41 424.418 972.7 418.802 972.7 418.802C973.467 419.208 974.357 419.316 975.198 419.105C976.039 418.894 976.774 418.377 977.26 417.655C968.026 415.248 969.28 406.193 969.28 406.193C970.926 407.388 972.849 408.138 974.866 408.371C973.84 407.11 965.176 396.68 970.42 391.292C970.42 391.292 976.804 402.755 993.562 403.786L994.702 403.557C994.508 402.731 994.431 401.882 994.474 401.035C994.474 397.843 995.735 394.782 997.98 392.525C1000.22 390.268 1003.27 389 1006.44 389C1014.42 389 1016.13 393.585 1016.13 393.585L1021.83 390.146C1021.72 390.146 1021.15 395.877 1018.3 397.023Z" fill="#3F3D56" id="id_169"></path>
<path d="M925.916 537.004L883.357 537.008C882.81 536.981 882.263 537.063 881.747 537.248C881.232 537.434 880.758 537.719 880.353 538.088C879.948 538.457 879.621 538.903 879.388 539.399C879.156 539.895 879.024 540.432 879 540.979L879.004 583.631C879.033 584.778 879.502 585.871 880.312 586.683C881.123 587.496 882.214 587.967 883.362 588L925.908 587.996C927.028 587.952 928.085 587.469 928.85 586.651C929.616 585.833 930.029 584.746 929.998 583.626L929.995 540.975C930.004 540.442 929.903 539.912 929.7 539.419C929.497 538.926 929.195 538.48 928.813 538.108C928.431 537.736 927.977 537.446 927.479 537.257C926.98 537.067 926.449 536.981 925.916 537.004V537.004ZM894.811 579.511L887.505 579.512L887.503 556.799L894.809 556.798L894.811 579.511ZM891.408 553.345H891.356C890.305 553.338 889.299 552.915 888.559 552.168C887.82 551.421 887.406 550.411 887.41 549.36C887.413 548.309 887.833 547.302 888.578 546.56C889.322 545.817 890.331 545.401 891.382 545.401C892.433 545.401 893.442 545.817 894.186 546.56C894.931 547.302 895.351 548.309 895.354 549.36C895.358 550.411 894.944 551.421 894.205 552.168C893.465 552.915 892.459 553.338 891.408 553.345V553.345ZM921.51 579.509L914.205 579.509L914.203 567.09C914.203 564.115 913.14 562.082 910.497 562.082C909.67 562.089 908.866 562.352 908.195 562.835C907.524 563.318 907.019 563.997 906.751 564.779C906.557 565.356 906.471 565.965 906.498 566.573L906.5 579.51L899.194 579.511L899.192 556.798L906.498 556.797L906.498 559.958C907.163 558.807 908.126 557.857 909.285 557.207C910.444 556.557 911.757 556.232 913.086 556.265C917.881 556.264 921.509 559.425 921.51 566.239V579.509Z" fill="#3F3D56" id="id_170"></path>
<path fill-rule="evenodd" clip-rule="evenodd" d="M836 365.687C835.999 359.631 834.273 353.702 831.027 348.601C827.78 343.501 823.15 339.443 817.682 336.909C812.215 334.374 806.141 333.469 800.178 334.3C794.216 335.131 788.615 337.663 784.038 341.597C779.461 345.532 776.101 350.703 774.355 356.499C772.608 362.295 772.549 368.473 774.184 374.302C775.819 380.131 779.08 385.366 783.58 389.388C788.081 393.41 793.632 396.051 799.578 396.997V374.852H791.578V365.687H799.578V358.704C799.578 350.762 804.282 346.372 811.476 346.372C813.839 346.405 816.196 346.612 818.529 346.991V354.791H814.555C810.644 354.791 809.42 357.234 809.42 359.744V365.689H818.156L816.761 374.853H809.42V397C816.831 395.819 823.579 392.017 828.451 386.277C833.323 380.537 836 373.236 836 365.687V365.687Z" fill="#3F3D56" id="id_171"></path>
<path d="M840.5 425C851.27 425 860 416.27 860 405.5C860 394.73 851.27 386 840.5 386C829.73 386 821 394.73 821 405.5C821 416.27 829.73 425 840.5 425Z" fill="#3F3D56" id="id_172"></path>
<path d="M844 416H840.074V400.893C838.625 402.27 836.892 403.307 835 403.93V400.293C836.215 399.841 837.345 399.183 838.339 398.346C839.466 397.494 840.324 396.332 840.813 395H844V416Z" fill="#3F3D56" id="id_173"></path>
<path d="M840.5 425C851.27 425 860 416.27 860 405.5C860 394.73 851.27 386 840.5 386C829.73 386 821 394.73 821 405.5C821 416.27 829.73 425 840.5 425Z" fill="#003742" id="id_174"></path>
<path d="M844 416H840.074V400.893C838.625 402.27 836.892 403.307 835 403.93V400.293C836.215 399.841 837.345 399.183 838.339 398.346C839.466 397.494 840.324 396.332 840.813 395H844V416Z" fill="white" id="id_175"></path>
<path d="M1025.5 474C1036.27 474 1045 465.27 1045 454.5C1045 443.73 1036.27 435 1025.5 435C1014.73 435 1006 443.73 1006 454.5C1006 465.27 1014.73 474 1025.5 474Z" fill="#3F3D56" id="id_176"></path>
<path d="M1023.18 457.719C1023.11 458.776 1023.41 459.823 1024.02 460.686C1024.23 460.998 1024.52 461.255 1024.85 461.437C1025.18 461.619 1025.55 461.719 1025.93 461.732C1026.26 461.735 1026.59 461.659 1026.89 461.51C1027.19 461.361 1027.45 461.144 1027.65 460.875C1028.19 460.043 1028.43 459.057 1028.34 458.07C1028.43 457.034 1028.16 456 1027.6 455.131C1027.39 454.846 1027.11 454.613 1026.79 454.452C1026.48 454.29 1026.13 454.204 1025.77 454.2C1025.42 454.196 1025.07 454.274 1024.75 454.428C1024.43 454.582 1024.14 454.808 1023.92 455.089C1023.38 455.85 1023.11 456.781 1023.18 457.719V457.719ZM1031.64 449.122L1028.02 449.544C1028 448.902 1027.75 448.289 1027.33 447.805C1027.14 447.617 1026.92 447.471 1026.67 447.374C1026.42 447.278 1026.15 447.233 1025.89 447.244C1025.49 447.25 1025.1 447.355 1024.75 447.551C1024.4 447.746 1024.11 448.026 1023.89 448.365C1023.17 449.813 1022.82 451.418 1022.86 453.038C1023.26 452.493 1023.79 452.052 1024.39 451.75C1024.99 451.447 1025.65 451.292 1026.33 451.296C1027.09 451.293 1027.84 451.461 1028.53 451.786C1029.23 452.111 1029.84 452.586 1030.33 453.177C1031.47 454.523 1032.07 456.258 1031.99 458.03C1032.08 459.883 1031.45 461.699 1030.24 463.093C1029.62 463.737 1028.88 464.24 1028.05 464.568C1027.23 464.895 1026.34 465.039 1025.45 464.991C1024.57 464.942 1023.7 464.702 1022.92 464.286C1022.13 463.87 1021.44 463.288 1020.9 462.58C1019.63 460.968 1019 458.324 1019 454.649C1019 450.88 1019.66 448.164 1020.98 446.5C1021.58 445.704 1022.36 445.062 1023.25 444.628C1024.14 444.194 1025.12 443.98 1026.11 444.003C1027.46 443.955 1028.77 444.423 1029.78 445.314C1030.82 446.327 1031.48 447.673 1031.64 449.122V449.122Z" fill="#3F3D56" id="id_177"></path>
<path d="M1025.5 474C1036.27 474 1045 465.27 1045 454.5C1045 443.73 1036.27 435 1025.5 435C1014.73 435 1006 443.73 1006 454.5C1006 465.27 1014.73 474 1025.5 474Z" fill="#003540" id="id_178"></path>
<path d="M1023.18 457.719C1023.11 458.776 1023.41 459.823 1024.02 460.686C1024.23 460.998 1024.52 461.255 1024.85 461.437C1025.18 461.619 1025.55 461.719 1025.93 461.732C1026.26 461.735 1026.59 461.659 1026.89 461.51C1027.19 461.361 1027.45 461.144 1027.65 460.875C1028.19 460.043 1028.43 459.057 1028.34 458.07C1028.43 457.034 1028.16 456 1027.6 455.131C1027.39 454.846 1027.11 454.613 1026.79 454.452C1026.48 454.29 1026.13 454.204 1025.77 454.2C1025.42 454.196 1025.07 454.274 1024.75 454.428C1024.43 454.582 1024.14 454.808 1023.92 455.089C1023.38 455.85 1023.11 456.781 1023.18 457.719V457.719ZM1031.64 449.122L1028.02 449.544C1028 448.902 1027.75 448.289 1027.33 447.805C1027.14 447.617 1026.92 447.471 1026.67 447.374C1026.42 447.278 1026.15 447.233 1025.89 447.244C1025.49 447.25 1025.1 447.355 1024.75 447.551C1024.4 447.746 1024.11 448.026 1023.89 448.365C1023.17 449.813 1022.82 451.418 1022.86 453.038C1023.26 452.493 1023.79 452.052 1024.39 451.75C1024.99 451.447 1025.65 451.292 1026.33 451.296C1027.09 451.293 1027.84 451.461 1028.53 451.786C1029.23 452.111 1029.84 452.586 1030.33 453.177C1031.47 454.523 1032.07 456.258 1031.99 458.03C1032.08 459.883 1031.45 461.699 1030.24 463.093C1029.62 463.737 1028.88 464.24 1028.05 464.568C1027.23 464.895 1026.34 465.039 1025.45 464.991C1024.57 464.942 1023.7 464.702 1022.92 464.286C1022.13 463.87 1021.44 463.288 1020.9 462.58C1019.63 460.968 1019 458.324 1019 454.649C1019 450.88 1019.66 448.164 1020.98 446.5C1021.58 445.704 1022.36 445.062 1023.25 444.628C1024.14 444.194 1025.12 443.98 1026.11 444.003C1027.46 443.955 1028.77 444.423 1029.78 445.314C1030.82 446.327 1031.48 447.673 1031.64 449.122V449.122Z" fill="white" id="id_179"></path>
<path d="M943.5 624C954.27 624 963 615.27 963 604.5C963 593.73 954.27 585 943.5 585C932.73 585 924 593.73 924 604.5C924 615.27 932.73 624 943.5 624Z" fill="#3F3D56" id="id_180"></path>
<path d="M941.087 599.576C941.067 599.91 941.113 600.244 941.223 600.559C941.333 600.874 941.504 601.164 941.727 601.411C941.951 601.633 942.217 601.807 942.51 601.92C942.803 602.033 943.117 602.084 943.43 602.069C943.747 602.084 944.064 602.033 944.361 601.919C944.657 601.804 944.927 601.629 945.154 601.404C945.378 601.156 945.55 600.865 945.661 600.549C945.772 600.233 945.82 599.897 945.8 599.562C945.816 599.238 945.767 598.915 945.657 598.61C945.548 598.306 945.379 598.027 945.162 597.789C944.941 597.566 944.677 597.391 944.385 597.277C944.094 597.162 943.783 597.11 943.471 597.124C943.151 597.108 942.831 597.16 942.532 597.276C942.233 597.391 941.961 597.569 941.734 597.796C941.514 598.035 941.344 598.315 941.233 598.62C941.122 598.926 941.072 599.251 941.087 599.576V599.576ZM940.737 608.376C940.682 609.292 940.968 610.196 941.539 610.911C941.785 611.202 942.092 611.435 942.437 611.593C942.783 611.75 943.159 611.828 943.538 611.822C943.906 611.83 944.27 611.756 944.606 611.604C944.941 611.453 945.239 611.228 945.478 610.945C946.034 610.227 946.307 609.327 946.245 608.417C946.286 607.572 946.007 606.744 945.465 606.1C945.219 605.816 944.914 605.59 944.571 605.438C944.229 605.286 943.858 605.213 943.485 605.222C943.084 605.195 942.684 605.273 942.322 605.447C941.96 605.621 941.648 605.887 941.417 606.218C940.974 606.848 940.736 607.602 940.737 608.376V608.376ZM940.306 603.541C939.426 603.195 938.678 602.574 938.171 601.768C937.728 601.022 937.497 600.167 937.505 599.297C937.484 598.59 937.61 597.887 937.876 597.232C938.141 596.578 938.54 595.987 939.046 595.499C940.303 594.527 941.842 594 943.424 594C945.007 594 946.546 594.527 947.802 595.499C948.312 595.985 948.714 596.575 948.982 597.23C949.25 597.884 949.378 598.589 949.358 599.297C949.377 600.198 949.127 601.085 948.642 601.841C948.157 602.598 947.458 603.19 946.636 603.541C947.647 603.921 948.515 604.613 949.117 605.517C949.719 606.422 950.024 607.495 949.991 608.584C950.038 609.442 949.904 610.299 949.599 611.101C949.294 611.902 948.825 612.629 948.222 613.234C947.619 613.839 946.895 614.308 946.1 614.611C945.304 614.913 944.454 615.042 943.606 614.988C941.986 615.047 940.398 614.526 939.12 613.518C938.424 612.945 937.871 612.216 937.503 611.388C937.136 610.561 936.966 609.658 937.006 608.752C936.996 607.679 937.27 606.623 937.8 605.693C938.381 604.718 939.261 603.963 940.306 603.541V603.541Z" fill="#3F3D56" id="id_181"></path>
<path d="M943.5 624C954.27 624 963 615.27 963 604.5C963 593.73 954.27 585 943.5 585C932.73 585 924 593.73 924 604.5C924 615.27 932.73 624 943.5 624Z" fill="#003742" id="id_182"></path>
<path d="M941.087 599.576C941.067 599.91 941.113 600.244 941.223 600.559C941.333 600.874 941.504 601.164 941.727 601.411C941.951 601.633 942.217 601.807 942.51 601.92C942.803 602.033 943.117 602.084 943.43 602.069C943.747 602.084 944.064 602.033 944.361 601.919C944.657 601.804 944.927 601.629 945.154 601.404C945.378 601.156 945.55 600.865 945.661 600.549C945.772 600.233 945.82 599.897 945.8 599.562C945.816 599.238 945.767 598.915 945.657 598.61C945.548 598.306 945.379 598.027 945.162 597.789C944.941 597.566 944.677 597.391 944.385 597.277C944.094 597.162 943.783 597.11 943.471 597.124C943.151 597.108 942.831 597.16 942.532 597.276C942.233 597.391 941.961 597.569 941.734 597.796C941.514 598.035 941.344 598.315 941.233 598.62C941.122 598.926 941.072 599.251 941.087 599.576V599.576ZM940.737 608.376C940.682 609.292 940.968 610.196 941.539 610.911C941.785 611.202 942.092 611.435 942.437 611.593C942.783 611.75 943.159 611.828 943.538 611.822C943.906 611.83 944.27 611.756 944.606 611.604C944.941 611.453 945.239 611.228 945.478 610.945C946.034 610.227 946.307 609.327 946.245 608.417C946.286 607.572 946.007 606.744 945.465 606.1C945.219 605.816 944.914 605.59 944.571 605.438C944.229 605.286 943.858 605.213 943.485 605.222C943.084 605.195 942.684 605.273 942.322 605.447C941.96 605.621 941.648 605.887 941.417 606.218C940.974 606.848 940.736 607.602 940.737 608.376V608.376ZM940.306 603.541C939.426 603.195 938.678 602.574 938.171 601.768C937.728 601.022 937.497 600.167 937.505 599.297C937.484 598.59 937.61 597.887 937.876 597.232C938.141 596.578 938.54 595.987 939.046 595.499C940.303 594.527 941.842 594 943.424 594C945.007 594 946.546 594.527 947.802 595.499C948.312 595.985 948.714 596.575 948.982 597.23C949.25 597.884 949.378 598.589 949.358 599.297C949.377 600.198 949.127 601.085 948.642 601.841C948.157 602.598 947.458 603.19 946.636 603.541C947.647 603.921 948.515 604.613 949.117 605.517C949.719 606.422 950.024 607.495 949.991 608.584C950.038 609.442 949.904 610.299 949.599 611.101C949.294 611.902 948.825 612.629 948.222 613.234C947.619 613.839 946.895 614.308 946.1 614.611C945.304 614.913 944.454 615.042 943.606 614.988C941.986 615.047 940.398 614.526 939.12 613.518C938.424 612.945 937.871 612.216 937.503 611.388C937.136 610.561 936.966 609.658 937.006 608.752C936.996 607.679 937.27 606.623 937.8 605.693C938.381 604.718 939.261 603.963 940.306 603.541V603.541Z" fill="white" id="id_183"></path>
</svg>