<svg xmlns="http://www.w3.org/2000/svg" xmlns:xlink="http://www.w3.org/1999/xlink" width="1500" height="1500" viewBox="0 0 1500 1500">
<defs>
<clipPath id="clip-path">
<rect id="Rectangle_2371" data-name="Rectangle 2371" width="1036" height="1036" transform="translate(232 232)" fill="#fff"></rect>
</clipPath>
<clipPath id="clip-undraw_teacher_re_sico">
<rect width="1500" height="1500" id="id_101"></rect>
</clipPath>
</defs>
<g id="undraw_teacher_re_sico" clip-path="url(#clip-undraw_teacher_re_sico)">
<rect width="1500" height="1500" fill="#fff" id="id_102"></rect>
<g id="undraw_teacher_re_sico-2" data-name="undraw_teacher_re_sico">
<g id="undraw_teacher_re_sico-3" data-name="undraw_teacher_re_sico">
<rect id="Rectangle_2370" data-name="Rectangle 2370" width="1500" height="1500" fill="#fff" opacity="0"></rect>
<g id="Group_504" data-name="Group 504" clip-path="url(#clip-path)">
<path id="Path_18808" data-name="Path 18808" d="M1268,750a517.229,517.229,0,0,1-27.36,166.557q-1.56,4.6-3.2,9.164a518.762,518.762,0,0,1-82.4,147.2q-15.825,19.845-33.52,38.04-17.7,18.225-37.16,34.68a515.326,515.326,0,0,1-254.07,116.17h-.015q-17.931,2.775-36.214,4.34-21.77,1.83-44.061,1.85a516.382,516.382,0,0,1-370.738-156.24q-5.08-5.2-10.007-10.55-12.276-13.3-23.617-27.44-6.367-7.965-12.429-16.16A515.856,515.856,0,0,1,271.54,948.832,509.1,509.1,0,0,1,253.609,898.5c-.368-1.211-.72-2.422-1.073-3.633q-1.149-3.907-2.222-7.861A518.624,518.624,0,0,1,232,750c0-286.08,231.92-518,518-518S1268,463.92,1268,750Z" fill="#f2f2f2"></path>
<path id="Path_18809" data-name="Path 18809" d="M451.687,541.622a33.754,33.754,0,0,0,33.756,39.238l82.687,240.6,52.761-36.26L519.04,544.225a33.938,33.938,0,0,0-67.353-2.6Z" fill="#ffb8b8"></path>
<path id="Path_18810" data-name="Path 18810" d="M883.263,623.028C846.543,664.8,756,738.429,681.411,789.125c-16.122,10.958-31.509,20.828-45.439,29.088-9.41,5.578-18.161,10.406-26.038,14.345a42.9,42.9,0,0,1-58.865-22.222L499.422,685.387l17.869-11.846,44.061-29.226,10.008-6.621L612.677,736.1l43.57-34.973L683.3,679.41,806.6,580.454l10.636-3.157,24.812,24.214L859.6,618.645l16.506,2.866C878.573,621.94,880.964,622.446,883.263,623.028Z" fill="#ffc932"></path>
<path id="Path_18811" data-name="Path 18811" d="M1212.71,966.337c2.55,3.249,5.21,6.483,7.86,9.732a513.339,513.339,0,0,1-30.75,54.431c-.84-.59-1.68-1.19-2.52-1.79a2.533,2.533,0,0,1-.39-.24c-3.14-2.24-6.3-4.45-9.44-6.69v-.01a107.05,107.05,0,0,1-4.3-27.127,8.1,8.1,0,0,0,1.88-15.111c-.41-.72-.7-1.241-1.12-1.977.02-.184.05-.383.06-.567C1176.4,957.847,1200.8,951.165,1212.71,966.337Z" fill="#fff"></path>
<path id="Path_18812" data-name="Path 18812" d="M1240.22,900.744q2.745,7.587,5.02,15.341-1.56,4.6-3.2,9.165-.615-2.414-1.29-4.828a247.322,247.322,0,0,0-8.96-26.359q-4.275-10.6-9.47-20.751a261.118,261.118,0,0,0-79.64-92.719,69.513,69.513,0,0,1-35.9-21.119,53.5,53.5,0,0,1-8.54-12.658c1.41-.2,2.82-.475,4.2-.767.43-.092.87-.2,1.3-.291l.17-.03a8.034,8.034,0,0,0,2.84-14.376c-.78-.567-1.58-1.118-2.36-1.67-1.2-.874-2.41-1.7-3.62-2.559a3.967,3.967,0,0,1-.37-.261c-1.38-.981-2.76-1.931-4.12-2.927a23.318,23.318,0,0,1,5.35-9.134c8.56-8.843,23.86-8.644,33.85-1.441,10.01,7.2,15.04,19.816,15.68,32.107.57,10.529-1.7,20.95-4.69,31.111.75.551,1.53,1.073,2.28,1.64a262.364,262.364,0,0,1,38.1,34.5c-6.66-15.816-9.09-36.444-7.35-50.65,1.97-16.184,9.84-31.556,16.27-46.866,7.71-18.39,34.01-18.635,41.43-.122.07.184.15.352.21.536-1.24,1.241-2.44,2.529-3.58,3.862a10.994,10.994,0,0,0,9.63,18.084l.23-.03a110.491,110.491,0,0,1,1.63,16.536,112.631,112.631,0,0,1-35.07,83.064c-.73.689-1.45,1.364-2.2,2.023a262.116,262.116,0,0,1,19.08,31.677,266.736,266.736,0,0,1,13.09,29.915Z" fill="#fff"></path>
<path id="Path_18813" data-name="Path 18813" d="M944.918,756.972,940.29,1074.84l-373.88-10.73,59.708-131.8c-.429-4.23,26.207-33.916,26.053-38.314-.459-12.889,9.165-24.827,10.728-38.314,3.188-27.815-15.065-132.856-6.651-154.557a147.512,147.512,0,0,1,13.7-27.708c4.781-7.234,9.686-12.107,14.375-13.869l13.824-32.215,12.26-18.39,96.2-28.49,10.636-3.157,24.812,24.214L859.6,618.645l16.506,2.866c2.467.429,4.858.935,7.157,1.517a72.7,72.7,0,0,1,30.129,14.927C942.205,662.43,945.562,708.467,944.918,756.972Z" fill="#ffc932"></path>
<path id="Path_18814" data-name="Path 18814" d="M1159.63,1072.45q-15.81,19.845-33.51,38.04l-40.43.03-217.423.24-39.141.05-26.023.03-38.712.03-29.777.03-55,.06-32.444.05-68.321.06-32.613.05-90.374.09-56.765.06-15.234.02q-5.08-5.205-10.007-10.55-12.276-13.3-23.617-27.45l31.54-.03,21.486-.01,49.747-.06,96-.1,32.444-.03,13.119-.01h.046l10.3-.02,4.613-.01,11.815-.02h5l35.033-.03,75.57-.09,33.256-.03,31.847-.03,29.854-.03,42.834-.05,228.776-.23Z" fill="#ccc"></path>
<path id="Path_18815" data-name="Path 18815" d="M642.363,595.171l-.084.008a16.744,16.744,0,0,1-18.221-15.119l-8.715-93.025A124.856,124.856,0,0,1,620.6,437.6a126.873,126.873,0,0,1,60.121-72.936,124.94,124.94,0,0,1,47.894-14.647c68.688-6.544,93.789,7.762,136.219,112.522s8.729,93.166,8.729,93.166a16.785,16.785,0,0,1-.709,6.65,17.046,17.046,0,0,1-8.1,9.8,16.829,16.829,0,0,1-6.4,1.957c-81.2,20.641-163.142,42.368-216.006,21.063Z" fill="#003a45"></path>
<path id="Path_18816" data-name="Path 18816" d="M793.506,438.159a92.1,92.1,0,0,1-93.658,142.022,91.027,91.027,0,0,1-58.607-38.567,92.1,92.1,0,0,1,93.589-141.98,91.028,91.028,0,0,1,58.676,38.529Z" fill="#ffb8b8"></path>
<path id="Path_18817" data-name="Path 18817" d="M586.548,497.37a98.78,98.78,0,0,1,4.163-39.1c.926-30.877,9.884-58.843,47.543-57.669a98.8,98.8,0,0,1,37.627-11.546l18.61-1.838.627-.06A98.606,98.606,0,0,1,802.437,476.2l.174,1.863-39.373,3.85-16.945-36.263.836,37.845-20.335,2-8.546-18.3.417,19.081c-30.193,26.592-75.978,27.986-131.924,12.956Z" fill="#002d36"></path>
<path id="Path_18818" data-name="Path 18818" d="M712.491,585.642a16.479,16.479,0,0,0,1.535,8.941,16.851,16.851,0,0,0,2.585,3.925,17.042,17.042,0,0,0,3,2.672,16.714,16.714,0,0,0,11.181,2.918c.247-.026.492-.056.738-.09s.49-.075.735-.121.492-.1.735-.153.488-.12.733-.187l13.741-3.851,15.4-42.94,3.53,37.68,62.486-17.4-14.98-159.9-106.5,10.494,2.921,2.812A73.614,73.614,0,0,1,730.3,464.955a119.97,119.97,0,0,1,3.039,40.708,216.312,216.312,0,0,1-7.627,40.747A318.907,318.907,0,0,1,713.672,581.1a16.831,16.831,0,0,0-1.181,4.546Z" fill="#003742"></path>
<path id="Path_18819" data-name="Path 18819" d="M726.693,1089.78a12.279,12.279,0,0,1-5.293-1.2l-295.045,7.53a12.387,12.387,0,0,1,1.763-23.06l193.027-57.55a12.344,12.344,0,0,1,6.154-.24l298.58,36.39a12.383,12.383,0,0,1,1.419,23.81L730.736,1089.1a12.361,12.361,0,0,1-4.043.68Z" fill="#003a45"></path>
<path id="Path_18820" data-name="Path 18820" d="M737.543,1069.24a7.8,7.8,0,0,1-3.805-.99l-239.62,11.19a7.765,7.765,0,0,1,1.967-14.32l86.748-21.05a7.727,7.727,0,0,1,4.1.12l222.76-.27a7.763,7.763,0,0,1,4,12.01,7.788,7.788,0,0,1-3.943,2.83l-69.888,10.13a7.913,7.913,0,0,1-2.318.35Z" fill="#00333d"></path>
<path id="Path_18821" data-name="Path 18821" d="M712.321,1056.47a33.762,33.762,0,0,0,49.432-15.35l253.627,19.93-12.26-62.839-261.6-2.492a33.939,33.939,0,0,0-29.2,60.751Z" fill="#ffb8b8"></path>
<path id="Path_18822" data-name="Path 18822" d="M862.128,647.258s38.314-30.651,84.29,24.521c31.006,37.207,90.822,262.133,95.772,355.341a42.878,42.878,0,0,1-43.8,45.15L863.2,1069.92l-15.117-84.985L954.816,986.2Z" fill="#ffc932"></path>
<path id="Path_18823" data-name="Path 18823" d="M710.283,1089.81a34.787,34.787,0,0,1-13.5-2.73l-273.47,6.24a34.745,34.745,0,0,1-20.921-37.67L392.229,815.479a34.7,34.7,0,0,1,36.681-29.232L682.8,796.778a34.849,34.849,0,0,1,32.065,40.679l29.746,223.393a34.887,34.887,0,0,1-34.324,28.96Z" fill="#00313b"></path>
<path id="Path_18824" data-name="Path 18824" d="M502.625,374.787,388.5,374.465a11.556,11.556,0,0,0-11.57,11.509L376.512,537.1a11.53,11.53,0,0,0,11.494,11.556l63.309.184,50.835.138a11.533,11.533,0,0,0,11.555-11.51l.031-8.934.4-142.175a11.547,11.547,0,0,0-11.509-11.57Z" fill="#e6e6e6"></path>
<path id="Path_18825" data-name="Path 18825" d="M494.579,383.813l-98.083-.276a10.821,10.821,0,0,0-10.835,10.774l-.276,97.163a48.189,48.189,0,0,0,48,48.26l18.636.046,42.13.123a10.813,10.813,0,0,0,10.835-10.774l.03-9.778.337-124.7a10.811,10.811,0,0,0-10.773-10.835Z" fill="#fff"></path>
<path id="Path_18826" data-name="Path 18826" d="M483.56,450.2H407.086a4.59,4.59,0,1,0,0,9.18H483.56a4.59,4.59,0,1,0,0-9.18Z" fill="#ffc932"></path>
<path id="Path_18827" data-name="Path 18827" d="M423.9,425.039H407.086a4.59,4.59,0,1,0,0,9.18H423.9a4.59,4.59,0,1,0,0-9.18Z" fill="#ffc932"></path>
<path id="Path_18828" data-name="Path 18828" d="M483.56,490.555H407.086a4.59,4.59,0,0,0,0,9.18H483.56a4.59,4.59,0,1,0,0-9.18Z" fill="#ffc932"></path>
<path id="Path_18829" data-name="Path 18829" d="M483.56,470.387H407.086a4.582,4.582,0,1,0,0,9.164H483.56a4.582,4.582,0,1,0,0-9.164Z" fill="#ffc932"></path>
<path id="Path_18830" data-name="Path 18830" d="M468.7,441.269a27.181,27.181,0,1,1,19.19-7.961,27.145,27.145,0,0,1-19.19,7.961Zm0-52.415a25.293,25.293,0,1,0,17.856,7.408,25.264,25.264,0,0,0-17.856-7.408Z" fill="#ffc932"></path>
<path id="Path_18831" data-name="Path 18831" d="M480.1,424.634a69.781,69.781,0,0,0-11.461-26.92,1.431,1.431,0,0,0-2.443,0,74.536,74.536,0,0,0-9.3,28.1c-.22,1.8,2.612,1.788,2.83,0a69.926,69.926,0,0,1,1.855-9.5,1.593,1.593,0,0,0,.317-.1,20.628,20.628,0,0,1,12.183-1.984c.036.006.071,0,.108,0a67.946,67.946,0,0,1,3.18,11.155C477.719,427.173,480.448,426.417,480.1,424.634Zm-17.5-11.793a71.648,71.648,0,0,1,4.942-11.675,67.805,67.805,0,0,1,5.465,10.133,23.885,23.885,0,0,0-10.407,1.542Z" fill="#ffc932"></path>
</g>
</g>
<path id="Path_18856" data-name="Path 18856" d="M605.243,194.7l12.795-10.233c-9.94-1.1-14.024,4.324-15.7,8.615-7.765-3.224-16.219,1-16.219,1l25.6,9.294a19.372,19.372,0,0,0-6.481-8.677Z" transform="translate(50 -5.396)" fill="#003742"></path>
<path id="Path_18857" data-name="Path 18857" d="M799.827,298.936,812.622,288.7c-9.94-1.1-14.024,4.324-15.7,8.615-7.765-3.224-16.219,1-16.219,1l25.6,9.294A19.372,19.372,0,0,0,799.827,298.936Z" transform="translate(235 160.604)" fill="#003b47"></path>
<path id="Path_18858" data-name="Path 18858" d="M589.955,387.889l12.795-10.233c-9.94-1.1-14.024,4.324-15.7,8.615-7.765-3.224-16.219,1-16.219,1l25.6,9.294a19.372,19.372,0,0,0-6.481-8.677Z" transform="translate(-267 217.604)" fill="#003742"></path>
</g>
</g>
</svg>